M48
; DRILL file {KiCad (5.1.7)-1} date 02/23/23 23:14:30
; FORMAT={-:-/ absolute / metric / decimal}
; #@! TF.CreationDate,2023-02-23T23:14:30-08:00
; #@! TF.GenerationSoftware,Kicad,Pcbnew,(5.1.7)-1
; #@! TF.FileFunction,Plated,1,2,PTH
FMAT,2
METRIC
T1C0.254
T2C0.700
T3C0.750
T4C0.900
T5C0.991
T6C1.000
T7C3.048
%
G90
G05
T1
X132.86Y-102.703
X134.826Y-101.074
X142.446Y-106.835
X142.8Y-97.6
X157.5Y-93.525
T2
X138.9Y-91.9
X138.9Y-99.52
X141.5Y-91.9
X141.5Y-99.52
T3
X136.0Y-91.88
X136.0Y-99.5
T4
X154.0Y-106.2
X156.54Y-106.2
X147.0Y-106.2
X149.54Y-106.2
T5
X161.08Y-90.46
X161.08Y-93.23
X161.08Y-96.0
X161.08Y-98.77
X161.08Y-101.54
X163.92Y-91.845
X163.92Y-94.615
X163.92Y-97.385
X163.92Y-100.155
T6
X131.65Y-82.25
X131.65Y-84.79
X131.65Y-87.33
X131.65Y-89.87
X131.65Y-92.41
X131.65Y-94.95
X131.65Y-97.49
X131.65Y-100.03
X131.65Y-102.57
X131.65Y-105.11
X131.65Y-107.65
X131.65Y-110.19
X142.0Y-83.66
X142.0Y-86.2
X144.54Y-83.66
X144.54Y-86.2
X147.08Y-83.66
X147.08Y-86.2
X149.62Y-83.66
X149.62Y-86.2
X152.16Y-83.66
X152.16Y-86.2
T7
X162.5Y-83.505
X162.5Y-108.495
T0
M30
