G04 #@! TF.GenerationSoftware,KiCad,Pcbnew,(5.1.7)-1*
G04 #@! TF.CreationDate,2023-02-23T23:14:07-08:00*
G04 #@! TF.ProjectId,MB9X-UART,4d423958-2d55-4415-9254-2e6b69636164,rev?*
G04 #@! TF.SameCoordinates,Original*
G04 #@! TF.FileFunction,Legend,Bot*
G04 #@! TF.FilePolarity,Positive*
%FSLAX46Y46*%
G04 Gerber Fmt 4.6, Leading zero omitted, Abs format (unit mm)*
G04 Created by KiCad (PCBNEW (5.1.7)-1) date 2023-02-23 23:14:07*
%MOMM*%
%LPD*%
G01*
G04 APERTURE LIST*
%ADD10C,0.150000*%
%ADD11O,1.700000X1.700000*%
%ADD12R,1.700000X1.700000*%
%ADD13C,3.048000*%
%ADD14C,1.498600*%
%ADD15O,1.400000X1.400000*%
%ADD16C,1.400000*%
%ADD17C,1.700000*%
%ADD18C,1.800000*%
%ADD19R,1.800000X1.800000*%
%ADD20O,1.500000X1.500000*%
%ADD21R,1.500000X1.500000*%
G04 APERTURE END LIST*
D10*
X135361904Y-109700000D02*
X135457142Y-109652380D01*
X135600000Y-109652380D01*
X135742857Y-109700000D01*
X135838095Y-109795238D01*
X135885714Y-109890476D01*
X135933333Y-110080952D01*
X135933333Y-110223809D01*
X135885714Y-110414285D01*
X135838095Y-110509523D01*
X135742857Y-110604761D01*
X135600000Y-110652380D01*
X135504761Y-110652380D01*
X135361904Y-110604761D01*
X135314285Y-110557142D01*
X135314285Y-110223809D01*
X135504761Y-110223809D01*
X134885714Y-110652380D02*
X134885714Y-109652380D01*
X134314285Y-110652380D01*
X134314285Y-109652380D01*
X133838095Y-110652380D02*
X133838095Y-109652380D01*
X133600000Y-109652380D01*
X133457142Y-109700000D01*
X133361904Y-109795238D01*
X133314285Y-109890476D01*
X133266666Y-110080952D01*
X133266666Y-110223809D01*
X133314285Y-110414285D01*
X133361904Y-110509523D01*
X133457142Y-110604761D01*
X133600000Y-110652380D01*
X133838095Y-110652380D01*
X135933333Y-81852380D02*
X135600000Y-82852380D01*
X135266666Y-81852380D01*
X134361904Y-82757142D02*
X134409523Y-82804761D01*
X134552380Y-82852380D01*
X134647619Y-82852380D01*
X134790476Y-82804761D01*
X134885714Y-82709523D01*
X134933333Y-82614285D01*
X134980952Y-82423809D01*
X134980952Y-82280952D01*
X134933333Y-82090476D01*
X134885714Y-81995238D01*
X134790476Y-81900000D01*
X134647619Y-81852380D01*
X134552380Y-81852380D01*
X134409523Y-81900000D01*
X134361904Y-81947619D01*
X133361904Y-82757142D02*
X133409523Y-82804761D01*
X133552380Y-82852380D01*
X133647619Y-82852380D01*
X133790476Y-82804761D01*
X133885714Y-82709523D01*
X133933333Y-82614285D01*
X133980952Y-82423809D01*
X133980952Y-82280952D01*
X133933333Y-82090476D01*
X133885714Y-81995238D01*
X133790476Y-81900000D01*
X133647619Y-81852380D01*
X133552380Y-81852380D01*
X133409523Y-81900000D01*
X133361904Y-81947619D01*
X135414285Y-103052380D02*
X135414285Y-102052380D01*
X135033333Y-102052380D01*
X134938095Y-102100000D01*
X134890476Y-102147619D01*
X134842857Y-102242857D01*
X134842857Y-102385714D01*
X134890476Y-102480952D01*
X134938095Y-102528571D01*
X135033333Y-102576190D01*
X135414285Y-102576190D01*
X134223809Y-102052380D02*
X134128571Y-102052380D01*
X134033333Y-102100000D01*
X133985714Y-102147619D01*
X133938095Y-102242857D01*
X133890476Y-102433333D01*
X133890476Y-102671428D01*
X133938095Y-102861904D01*
X133985714Y-102957142D01*
X134033333Y-103004761D01*
X134128571Y-103052380D01*
X134223809Y-103052380D01*
X134319047Y-103004761D01*
X134366666Y-102957142D01*
X134414285Y-102861904D01*
X134461904Y-102671428D01*
X134461904Y-102433333D01*
X134414285Y-102242857D01*
X134366666Y-102147619D01*
X134319047Y-102100000D01*
X134223809Y-102052380D01*
X132938095Y-103052380D02*
X133509523Y-103052380D01*
X133223809Y-103052380D02*
X133223809Y-102052380D01*
X133319047Y-102195238D01*
X133414285Y-102290476D01*
X133509523Y-102338095D01*
X134004761Y-99009523D02*
X134052380Y-99152380D01*
X134052380Y-99390476D01*
X134004761Y-99485714D01*
X133957142Y-99533333D01*
X133861904Y-99580952D01*
X133766666Y-99580952D01*
X133671428Y-99533333D01*
X133623809Y-99485714D01*
X133576190Y-99390476D01*
X133528571Y-99200000D01*
X133480952Y-99104761D01*
X133433333Y-99057142D01*
X133338095Y-99009523D01*
X133242857Y-99009523D01*
X133147619Y-99057142D01*
X133100000Y-99104761D01*
X133052380Y-99200000D01*
X133052380Y-99438095D01*
X133100000Y-99580952D01*
X133052380Y-100200000D02*
X133052380Y-100390476D01*
X133100000Y-100485714D01*
X133195238Y-100580952D01*
X133385714Y-100628571D01*
X133719047Y-100628571D01*
X133909523Y-100580952D01*
X134004761Y-100485714D01*
X134052380Y-100390476D01*
X134052380Y-100200000D01*
X134004761Y-100104761D01*
X133909523Y-100009523D01*
X133719047Y-99961904D01*
X133385714Y-99961904D01*
X133195238Y-100009523D01*
X133100000Y-100104761D01*
X133052380Y-100200000D01*
X133052380Y-100914285D02*
X133052380Y-101485714D01*
X134052380Y-101200000D02*
X133052380Y-101200000D01*
X135247619Y-98004761D02*
X135104761Y-98052380D01*
X134866666Y-98052380D01*
X134771428Y-98004761D01*
X134723809Y-97957142D01*
X134676190Y-97861904D01*
X134676190Y-97766666D01*
X134723809Y-97671428D01*
X134771428Y-97623809D01*
X134866666Y-97576190D01*
X135057142Y-97528571D01*
X135152380Y-97480952D01*
X135200000Y-97433333D01*
X135247619Y-97338095D01*
X135247619Y-97242857D01*
X135200000Y-97147619D01*
X135152380Y-97100000D01*
X135057142Y-97052380D01*
X134819047Y-97052380D01*
X134676190Y-97100000D01*
X134247619Y-98052380D02*
X134247619Y-97052380D01*
X133771428Y-98052380D02*
X133771428Y-97052380D01*
X133200000Y-98052380D01*
X133200000Y-97052380D01*
X135823809Y-95452380D02*
X136157142Y-94976190D01*
X136395238Y-95452380D02*
X136395238Y-94452380D01*
X136014285Y-94452380D01*
X135919047Y-94500000D01*
X135871428Y-94547619D01*
X135823809Y-94642857D01*
X135823809Y-94785714D01*
X135871428Y-94880952D01*
X135919047Y-94928571D01*
X136014285Y-94976190D01*
X136395238Y-94976190D01*
X135442857Y-95404761D02*
X135300000Y-95452380D01*
X135061904Y-95452380D01*
X134966666Y-95404761D01*
X134919047Y-95357142D01*
X134871428Y-95261904D01*
X134871428Y-95166666D01*
X134919047Y-95071428D01*
X134966666Y-95023809D01*
X135061904Y-94976190D01*
X135252380Y-94928571D01*
X135347619Y-94880952D01*
X135395238Y-94833333D01*
X135442857Y-94738095D01*
X135442857Y-94642857D01*
X135395238Y-94547619D01*
X135347619Y-94500000D01*
X135252380Y-94452380D01*
X135014285Y-94452380D01*
X134871428Y-94500000D01*
X134585714Y-94452380D02*
X134014285Y-94452380D01*
X134300000Y-95452380D02*
X134300000Y-94452380D01*
X133776190Y-94452380D02*
X133109523Y-95452380D01*
X133109523Y-94452380D02*
X133776190Y-95452380D01*
X134195238Y-92747619D02*
X132909523Y-93604761D01*
X133242857Y-91842857D02*
X133195238Y-91890476D01*
X133147619Y-92033333D01*
X133147619Y-92128571D01*
X133195238Y-92271428D01*
X133290476Y-92366666D01*
X133385714Y-92414285D01*
X133576190Y-92461904D01*
X133719047Y-92461904D01*
X133909523Y-92414285D01*
X134004761Y-92366666D01*
X134100000Y-92271428D01*
X134147619Y-92128571D01*
X134147619Y-92033333D01*
X134100000Y-91890476D01*
X134052380Y-91842857D01*
X133195238Y-91461904D02*
X133147619Y-91319047D01*
X133147619Y-91080952D01*
X133195238Y-90985714D01*
X133242857Y-90938095D01*
X133338095Y-90890476D01*
X133433333Y-90890476D01*
X133528571Y-90938095D01*
X133576190Y-90985714D01*
X133623809Y-91080952D01*
X133671428Y-91271428D01*
X133719047Y-91366666D01*
X133766666Y-91414285D01*
X133861904Y-91461904D01*
X133957142Y-91461904D01*
X134052380Y-91414285D01*
X134100000Y-91366666D01*
X134147619Y-91271428D01*
X134147619Y-91033333D01*
X134100000Y-90890476D01*
X136014285Y-89852380D02*
X136014285Y-88852380D01*
X135633333Y-88852380D01*
X135538095Y-88900000D01*
X135490476Y-88947619D01*
X135442857Y-89042857D01*
X135442857Y-89185714D01*
X135490476Y-89280952D01*
X135538095Y-89328571D01*
X135633333Y-89376190D01*
X136014285Y-89376190D01*
X134823809Y-88852380D02*
X134728571Y-88852380D01*
X134633333Y-88900000D01*
X134585714Y-88947619D01*
X134538095Y-89042857D01*
X134490476Y-89233333D01*
X134490476Y-89471428D01*
X134538095Y-89661904D01*
X134585714Y-89757142D01*
X134633333Y-89804761D01*
X134728571Y-89852380D01*
X134823809Y-89852380D01*
X134919047Y-89804761D01*
X134966666Y-89757142D01*
X135014285Y-89661904D01*
X135061904Y-89471428D01*
X135061904Y-89233333D01*
X135014285Y-89042857D01*
X134966666Y-88947619D01*
X134919047Y-88900000D01*
X134823809Y-88852380D01*
X133871428Y-88852380D02*
X133776190Y-88852380D01*
X133680952Y-88900000D01*
X133633333Y-88947619D01*
X133585714Y-89042857D01*
X133538095Y-89233333D01*
X133538095Y-89471428D01*
X133585714Y-89661904D01*
X133633333Y-89757142D01*
X133680952Y-89804761D01*
X133776190Y-89852380D01*
X133871428Y-89852380D01*
X133966666Y-89804761D01*
X134014285Y-89757142D01*
X134061904Y-89661904D01*
X134109523Y-89471428D01*
X134109523Y-89233333D01*
X134061904Y-89042857D01*
X134014285Y-88947619D01*
X133966666Y-88900000D01*
X133871428Y-88852380D01*
X136109523Y-87852380D02*
X136109523Y-86852380D01*
X135776190Y-87566666D01*
X135442857Y-86852380D01*
X135442857Y-87852380D01*
X134966666Y-87852380D02*
X134966666Y-86852380D01*
X134728571Y-86852380D01*
X134585714Y-86900000D01*
X134490476Y-86995238D01*
X134442857Y-87090476D01*
X134395238Y-87280952D01*
X134395238Y-87423809D01*
X134442857Y-87614285D01*
X134490476Y-87709523D01*
X134585714Y-87804761D01*
X134728571Y-87852380D01*
X134966666Y-87852380D01*
X133776190Y-86852380D02*
X133680952Y-86852380D01*
X133585714Y-86900000D01*
X133538095Y-86947619D01*
X133490476Y-87042857D01*
X133442857Y-87233333D01*
X133442857Y-87471428D01*
X133490476Y-87661904D01*
X133538095Y-87757142D01*
X133585714Y-87804761D01*
X133680952Y-87852380D01*
X133776190Y-87852380D01*
X133871428Y-87804761D01*
X133919047Y-87757142D01*
X133966666Y-87661904D01*
X134014285Y-87471428D01*
X134014285Y-87233333D01*
X133966666Y-87042857D01*
X133919047Y-86947619D01*
X133871428Y-86900000D01*
X133776190Y-86852380D01*
X136109523Y-85252380D02*
X136109523Y-84252380D01*
X135776190Y-84966666D01*
X135442857Y-84252380D01*
X135442857Y-85252380D01*
X134966666Y-85252380D02*
X134966666Y-84252380D01*
X134728571Y-84252380D01*
X134585714Y-84300000D01*
X134490476Y-84395238D01*
X134442857Y-84490476D01*
X134395238Y-84680952D01*
X134395238Y-84823809D01*
X134442857Y-85014285D01*
X134490476Y-85109523D01*
X134585714Y-85204761D01*
X134728571Y-85252380D01*
X134966666Y-85252380D01*
X134014285Y-84347619D02*
X133966666Y-84300000D01*
X133871428Y-84252380D01*
X133633333Y-84252380D01*
X133538095Y-84300000D01*
X133490476Y-84347619D01*
X133442857Y-84442857D01*
X133442857Y-84538095D01*
X133490476Y-84680952D01*
X134061904Y-85252380D01*
X133442857Y-85252380D01*
%LPC*%
D11*
X131650000Y-110190000D03*
X131650000Y-107650000D03*
X131650000Y-105110000D03*
X131650000Y-102570000D03*
X131650000Y-100030000D03*
X131650000Y-97490000D03*
X131650000Y-94950000D03*
X131650000Y-92410000D03*
X131650000Y-89870000D03*
X131650000Y-87330000D03*
X131650000Y-84790000D03*
D12*
X131650000Y-82250000D03*
D13*
X162500002Y-108495000D03*
X162500002Y-83505000D03*
D14*
X163920001Y-100154998D03*
X163920001Y-97384998D03*
X163920001Y-94614999D03*
X163920001Y-91844999D03*
X161080002Y-101539999D03*
X161080002Y-98770000D03*
X161080002Y-96000000D03*
X161080002Y-93230000D03*
X161080002Y-90460001D03*
D15*
X141500000Y-99520000D03*
D16*
X141500000Y-91900000D03*
D15*
X138900000Y-99520000D03*
D16*
X138900000Y-91900000D03*
D17*
X152160000Y-83660000D03*
X149620000Y-83660000D03*
X147080000Y-83660000D03*
X144540000Y-83660000D03*
X142000000Y-83660000D03*
X152160000Y-86200000D03*
X149620000Y-86200000D03*
X147080000Y-86200000D03*
X144540000Y-86200000D03*
G36*
G01*
X142600000Y-87050000D02*
X141400000Y-87050000D01*
G75*
G02*
X141150000Y-86800000I0J250000D01*
G01*
X141150000Y-85600000D01*
G75*
G02*
X141400000Y-85350000I250000J0D01*
G01*
X142600000Y-85350000D01*
G75*
G02*
X142850000Y-85600000I0J-250000D01*
G01*
X142850000Y-86800000D01*
G75*
G02*
X142600000Y-87050000I-250000J0D01*
G01*
G37*
D18*
X156540000Y-106200000D03*
D19*
X154000000Y-106200000D03*
D18*
X149540000Y-106200000D03*
D19*
X147000000Y-106200000D03*
D20*
X136000000Y-91880000D03*
D21*
X136000000Y-99500000D03*
M02*
