G04 #@! TF.GenerationSoftware,KiCad,Pcbnew,(5.1.7)-1*
G04 #@! TF.CreationDate,2023-02-23T23:14:07-08:00*
G04 #@! TF.ProjectId,MB9X-UART,4d423958-2d55-4415-9254-2e6b69636164,rev?*
G04 #@! TF.SameCoordinates,Original*
G04 #@! TF.FileFunction,Copper,L2,Bot*
G04 #@! TF.FilePolarity,Positive*
%FSLAX46Y46*%
G04 Gerber Fmt 4.6, Leading zero omitted, Abs format (unit mm)*
G04 Created by KiCad (PCBNEW (5.1.7)-1) date 2023-02-23 23:14:07*
%MOMM*%
%LPD*%
G01*
G04 APERTURE LIST*
G04 #@! TA.AperFunction,ComponentPad*
%ADD10O,1.700000X1.700000*%
G04 #@! TD*
G04 #@! TA.AperFunction,ComponentPad*
%ADD11R,1.700000X1.700000*%
G04 #@! TD*
G04 #@! TA.AperFunction,ComponentPad*
%ADD12C,3.048000*%
G04 #@! TD*
G04 #@! TA.AperFunction,ComponentPad*
%ADD13C,1.498600*%
G04 #@! TD*
G04 #@! TA.AperFunction,ComponentPad*
%ADD14O,1.400000X1.400000*%
G04 #@! TD*
G04 #@! TA.AperFunction,ComponentPad*
%ADD15C,1.400000*%
G04 #@! TD*
G04 #@! TA.AperFunction,ComponentPad*
%ADD16C,1.700000*%
G04 #@! TD*
G04 #@! TA.AperFunction,ComponentPad*
%ADD17C,1.800000*%
G04 #@! TD*
G04 #@! TA.AperFunction,ComponentPad*
%ADD18R,1.800000X1.800000*%
G04 #@! TD*
G04 #@! TA.AperFunction,ComponentPad*
%ADD19O,1.500000X1.500000*%
G04 #@! TD*
G04 #@! TA.AperFunction,ComponentPad*
%ADD20R,1.500000X1.500000*%
G04 #@! TD*
G04 #@! TA.AperFunction,ViaPad*
%ADD21C,0.381000*%
G04 #@! TD*
G04 #@! TA.AperFunction,Conductor*
%ADD22C,0.152400*%
G04 #@! TD*
G04 #@! TA.AperFunction,Conductor*
%ADD23C,0.100000*%
G04 #@! TD*
G04 APERTURE END LIST*
D10*
X131650000Y-110190000D03*
X131650000Y-107650000D03*
X131650000Y-105110000D03*
X131650000Y-102570000D03*
X131650000Y-100030000D03*
X131650000Y-97490000D03*
X131650000Y-94950000D03*
X131650000Y-92410000D03*
X131650000Y-89870000D03*
X131650000Y-87330000D03*
X131650000Y-84790000D03*
D11*
X131650000Y-82250000D03*
D12*
X162500002Y-108495000D03*
X162500002Y-83505000D03*
D13*
X163920001Y-100154998D03*
X163920001Y-97384998D03*
X163920001Y-94614999D03*
X163920001Y-91844999D03*
X161080002Y-101539999D03*
X161080002Y-98770000D03*
X161080002Y-96000000D03*
X161080002Y-93230000D03*
X161080002Y-90460001D03*
D14*
X141500000Y-99520000D03*
D15*
X141500000Y-91900000D03*
D14*
X138900000Y-99520000D03*
D15*
X138900000Y-91900000D03*
D16*
X152160000Y-83660000D03*
X149620000Y-83660000D03*
X147080000Y-83660000D03*
X144540000Y-83660000D03*
X142000000Y-83660000D03*
X152160000Y-86200000D03*
X149620000Y-86200000D03*
X147080000Y-86200000D03*
X144540000Y-86200000D03*
G04 #@! TA.AperFunction,ComponentPad*
G36*
G01*
X142600000Y-87050000D02*
X141400000Y-87050000D01*
G75*
G02*
X141150000Y-86800000I0J250000D01*
G01*
X141150000Y-85600000D01*
G75*
G02*
X141400000Y-85350000I250000J0D01*
G01*
X142600000Y-85350000D01*
G75*
G02*
X142850000Y-85600000I0J-250000D01*
G01*
X142850000Y-86800000D01*
G75*
G02*
X142600000Y-87050000I-250000J0D01*
G01*
G37*
G04 #@! TD.AperFunction*
D17*
X156540000Y-106200000D03*
D18*
X154000000Y-106200000D03*
D17*
X149540000Y-106200000D03*
D18*
X147000000Y-106200000D03*
D19*
X136000000Y-91880000D03*
D20*
X136000000Y-99500000D03*
D21*
X157500000Y-93525000D03*
X142446100Y-106835000D03*
X142800000Y-97600000D03*
X132860100Y-102702900D03*
X134826100Y-101073900D03*
D22*
X144540000Y-83660000D02*
X143219900Y-84980100D01*
X143219900Y-84980100D02*
X143219900Y-89936300D01*
X140571000Y-92585200D02*
X140571000Y-94514800D01*
X140571000Y-94514800D02*
X140876100Y-94819900D01*
X152160000Y-86200000D02*
X152160000Y-101820000D01*
X152160000Y-101820000D02*
X156540000Y-106200000D01*
X147000000Y-106200000D02*
X145871100Y-106200000D01*
X139180000Y-99508900D02*
X139000000Y-99508900D01*
X139191100Y-99520000D02*
X139335550Y-99664450D01*
X138900000Y-99520000D02*
X139191100Y-99520000D01*
X139335550Y-99664450D02*
X139180000Y-99508900D01*
X145871100Y-106200000D02*
X139335550Y-99664450D01*
X154000000Y-106200000D02*
X152871100Y-106200000D01*
X152871100Y-106200000D02*
X145251100Y-98580000D01*
X145251100Y-98580000D02*
X141500000Y-98580000D01*
X141500000Y-98580000D02*
X141500000Y-99520000D01*
X131650000Y-102570000D02*
X132212400Y-103132400D01*
X132212400Y-103132400D02*
X134691900Y-103132400D01*
X134691900Y-103132400D02*
X137417000Y-100407300D01*
X137417000Y-100407300D02*
X137417000Y-98840300D01*
X137417000Y-98840300D02*
X140630000Y-95627300D01*
X140630000Y-95627300D02*
X140691100Y-95627300D01*
X140691100Y-95627300D02*
X148350000Y-87968400D01*
X148350000Y-87968400D02*
X148350000Y-84930000D01*
X148350000Y-84930000D02*
X149620000Y-83660000D01*
X147080000Y-83660000D02*
X145810000Y-84930000D01*
X145810000Y-84930000D02*
X145810000Y-89190000D01*
X141500000Y-91900000D02*
X141500000Y-91000000D01*
X144758890Y-90241110D02*
X145810000Y-89190000D01*
X142258890Y-90241110D02*
X144758890Y-90241110D01*
X141500000Y-91000000D02*
X142258890Y-90241110D01*
X142000000Y-88800000D02*
X142000000Y-86200000D01*
X138900000Y-91900000D02*
X142000000Y-88800000D01*
X131650000Y-89870000D02*
X131650000Y-90948900D01*
X131650000Y-90948900D02*
X131784900Y-90948900D01*
X131784900Y-90948900D02*
X132860100Y-92024100D01*
X132860100Y-92024100D02*
X132860100Y-102702900D01*
X131650000Y-84790000D02*
X131650000Y-85868900D01*
X131650000Y-85868900D02*
X131784900Y-85868900D01*
X131784900Y-85868900D02*
X134826100Y-88910100D01*
X134826100Y-88910100D02*
X134826100Y-101073900D01*
X165746400Y-111746400D02*
X129853600Y-111746400D01*
X129853600Y-110506601D01*
X130381720Y-110506601D01*
X130419565Y-110631377D01*
X130529316Y-110862942D01*
X130682134Y-111068646D01*
X130872147Y-111240584D01*
X131092052Y-111372149D01*
X131333399Y-111458285D01*
X131535700Y-111377898D01*
X131535700Y-110304300D01*
X131764300Y-110304300D01*
X131764300Y-111377898D01*
X131966601Y-111458285D01*
X132207948Y-111372149D01*
X132427853Y-111240584D01*
X132617866Y-111068646D01*
X132770684Y-110862942D01*
X132880435Y-110631377D01*
X132918280Y-110506601D01*
X132837411Y-110304300D01*
X131764300Y-110304300D01*
X131535700Y-110304300D01*
X130462589Y-110304300D01*
X130381720Y-110506601D01*
X129853600Y-110506601D01*
X129853600Y-109873399D01*
X130381720Y-109873399D01*
X130462589Y-110075700D01*
X131535700Y-110075700D01*
X131535700Y-109002102D01*
X131764300Y-109002102D01*
X131764300Y-110075700D01*
X132837411Y-110075700D01*
X132918280Y-109873399D01*
X132880435Y-109748623D01*
X132770684Y-109517058D01*
X132617866Y-109311354D01*
X132427853Y-109139416D01*
X132207948Y-109007851D01*
X131966601Y-108921715D01*
X131764300Y-109002102D01*
X131535700Y-109002102D01*
X131333399Y-108921715D01*
X131092052Y-109007851D01*
X130872147Y-109139416D01*
X130682134Y-109311354D01*
X130529316Y-109517058D01*
X130419565Y-109748623D01*
X130381720Y-109873399D01*
X129853600Y-109873399D01*
X129853600Y-107543767D01*
X130571400Y-107543767D01*
X130571400Y-107756233D01*
X130612850Y-107964616D01*
X130694157Y-108160909D01*
X130812197Y-108337567D01*
X130962433Y-108487803D01*
X131139091Y-108605843D01*
X131335384Y-108687150D01*
X131543767Y-108728600D01*
X131756233Y-108728600D01*
X131964616Y-108687150D01*
X132160909Y-108605843D01*
X132337567Y-108487803D01*
X132487803Y-108337567D01*
X132497948Y-108322384D01*
X160747402Y-108322384D01*
X160747402Y-108667616D01*
X160814754Y-109006215D01*
X160946868Y-109325167D01*
X161138669Y-109612217D01*
X161382785Y-109856333D01*
X161669835Y-110048134D01*
X161988787Y-110180248D01*
X162327386Y-110247600D01*
X162672618Y-110247600D01*
X163011217Y-110180248D01*
X163330169Y-110048134D01*
X163617219Y-109856333D01*
X163861335Y-109612217D01*
X164053136Y-109325167D01*
X164185250Y-109006215D01*
X164252602Y-108667616D01*
X164252602Y-108322384D01*
X164185250Y-107983785D01*
X164053136Y-107664833D01*
X163861335Y-107377783D01*
X163617219Y-107133667D01*
X163330169Y-106941866D01*
X163011217Y-106809752D01*
X162672618Y-106742400D01*
X162327386Y-106742400D01*
X161988787Y-106809752D01*
X161669835Y-106941866D01*
X161382785Y-107133667D01*
X161138669Y-107377783D01*
X160946868Y-107664833D01*
X160814754Y-107983785D01*
X160747402Y-108322384D01*
X132497948Y-108322384D01*
X132605843Y-108160909D01*
X132687150Y-107964616D01*
X132728600Y-107756233D01*
X132728600Y-107543767D01*
X132687150Y-107335384D01*
X132605843Y-107139091D01*
X132487803Y-106962433D01*
X132337567Y-106812197D01*
X132160909Y-106694157D01*
X131964616Y-106612850D01*
X131756233Y-106571400D01*
X131543767Y-106571400D01*
X131335384Y-106612850D01*
X131139091Y-106694157D01*
X130962433Y-106812197D01*
X130812197Y-106962433D01*
X130694157Y-107139091D01*
X130612850Y-107335384D01*
X130571400Y-107543767D01*
X129853600Y-107543767D01*
X129853600Y-105003767D01*
X130571400Y-105003767D01*
X130571400Y-105216233D01*
X130612850Y-105424616D01*
X130694157Y-105620909D01*
X130812197Y-105797567D01*
X130962433Y-105947803D01*
X131139091Y-106065843D01*
X131335384Y-106147150D01*
X131543767Y-106188600D01*
X131756233Y-106188600D01*
X131964616Y-106147150D01*
X132160909Y-106065843D01*
X132337567Y-105947803D01*
X132487803Y-105797567D01*
X132605843Y-105620909D01*
X132687150Y-105424616D01*
X132728600Y-105216233D01*
X132728600Y-105003767D01*
X132687150Y-104795384D01*
X132605843Y-104599091D01*
X132487803Y-104422433D01*
X132337567Y-104272197D01*
X132160909Y-104154157D01*
X131964616Y-104072850D01*
X131756233Y-104031400D01*
X131543767Y-104031400D01*
X131335384Y-104072850D01*
X131139091Y-104154157D01*
X130962433Y-104272197D01*
X130812197Y-104422433D01*
X130694157Y-104599091D01*
X130612850Y-104795384D01*
X130571400Y-105003767D01*
X129853600Y-105003767D01*
X129853600Y-89763767D01*
X130571400Y-89763767D01*
X130571400Y-89976233D01*
X130612850Y-90184616D01*
X130694157Y-90380909D01*
X130812197Y-90557567D01*
X130962433Y-90707803D01*
X131139091Y-90825843D01*
X131335384Y-90907150D01*
X131345201Y-90909103D01*
X131345201Y-90933924D01*
X131343726Y-90948900D01*
X131349611Y-91008651D01*
X131367040Y-91066106D01*
X131395342Y-91119057D01*
X131433432Y-91165468D01*
X131479843Y-91203558D01*
X131532794Y-91231860D01*
X131590249Y-91249289D01*
X131635034Y-91253700D01*
X131635035Y-91253700D01*
X131650000Y-91255174D01*
X131659215Y-91254266D01*
X131736349Y-91331400D01*
X131543767Y-91331400D01*
X131335384Y-91372850D01*
X131139091Y-91454157D01*
X130962433Y-91572197D01*
X130812197Y-91722433D01*
X130694157Y-91899091D01*
X130612850Y-92095384D01*
X130571400Y-92303767D01*
X130571400Y-92516233D01*
X130612850Y-92724616D01*
X130694157Y-92920909D01*
X130812197Y-93097567D01*
X130962433Y-93247803D01*
X131139091Y-93365843D01*
X131335384Y-93447150D01*
X131543767Y-93488600D01*
X131756233Y-93488600D01*
X131964616Y-93447150D01*
X132160909Y-93365843D01*
X132337567Y-93247803D01*
X132487803Y-93097567D01*
X132555300Y-92996551D01*
X132555300Y-94363449D01*
X132487803Y-94262433D01*
X132337567Y-94112197D01*
X132160909Y-93994157D01*
X131964616Y-93912850D01*
X131756233Y-93871400D01*
X131543767Y-93871400D01*
X131335384Y-93912850D01*
X131139091Y-93994157D01*
X130962433Y-94112197D01*
X130812197Y-94262433D01*
X130694157Y-94439091D01*
X130612850Y-94635384D01*
X130571400Y-94843767D01*
X130571400Y-95056233D01*
X130612850Y-95264616D01*
X130694157Y-95460909D01*
X130812197Y-95637567D01*
X130962433Y-95787803D01*
X131139091Y-95905843D01*
X131335384Y-95987150D01*
X131543767Y-96028600D01*
X131756233Y-96028600D01*
X131964616Y-95987150D01*
X132160909Y-95905843D01*
X132337567Y-95787803D01*
X132487803Y-95637567D01*
X132555300Y-95536551D01*
X132555300Y-96903449D01*
X132487803Y-96802433D01*
X132337567Y-96652197D01*
X132160909Y-96534157D01*
X131964616Y-96452850D01*
X131756233Y-96411400D01*
X131543767Y-96411400D01*
X131335384Y-96452850D01*
X131139091Y-96534157D01*
X130962433Y-96652197D01*
X130812197Y-96802433D01*
X130694157Y-96979091D01*
X130612850Y-97175384D01*
X130571400Y-97383767D01*
X130571400Y-97596233D01*
X130612850Y-97804616D01*
X130694157Y-98000909D01*
X130812197Y-98177567D01*
X130962433Y-98327803D01*
X131139091Y-98445843D01*
X131335384Y-98527150D01*
X131543767Y-98568600D01*
X131756233Y-98568600D01*
X131964616Y-98527150D01*
X132160909Y-98445843D01*
X132337567Y-98327803D01*
X132487803Y-98177567D01*
X132555301Y-98076551D01*
X132555301Y-99443450D01*
X132487803Y-99342433D01*
X132337567Y-99192197D01*
X132160909Y-99074157D01*
X131964616Y-98992850D01*
X131756233Y-98951400D01*
X131543767Y-98951400D01*
X131335384Y-98992850D01*
X131139091Y-99074157D01*
X130962433Y-99192197D01*
X130812197Y-99342433D01*
X130694157Y-99519091D01*
X130612850Y-99715384D01*
X130571400Y-99923767D01*
X130571400Y-100136233D01*
X130612850Y-100344616D01*
X130694157Y-100540909D01*
X130812197Y-100717567D01*
X130962433Y-100867803D01*
X131139091Y-100985843D01*
X131335384Y-101067150D01*
X131543767Y-101108600D01*
X131756233Y-101108600D01*
X131964616Y-101067150D01*
X132160909Y-100985843D01*
X132337567Y-100867803D01*
X132487803Y-100717567D01*
X132555301Y-100616550D01*
X132555301Y-101983450D01*
X132487803Y-101882433D01*
X132337567Y-101732197D01*
X132160909Y-101614157D01*
X131964616Y-101532850D01*
X131756233Y-101491400D01*
X131543767Y-101491400D01*
X131335384Y-101532850D01*
X131139091Y-101614157D01*
X130962433Y-101732197D01*
X130812197Y-101882433D01*
X130694157Y-102059091D01*
X130612850Y-102255384D01*
X130571400Y-102463767D01*
X130571400Y-102676233D01*
X130612850Y-102884616D01*
X130694157Y-103080909D01*
X130812197Y-103257567D01*
X130962433Y-103407803D01*
X131139091Y-103525843D01*
X131335384Y-103607150D01*
X131543767Y-103648600D01*
X131756233Y-103648600D01*
X131964616Y-103607150D01*
X132160909Y-103525843D01*
X132293572Y-103437200D01*
X134676942Y-103437200D01*
X134691900Y-103438673D01*
X134706858Y-103437200D01*
X134706866Y-103437200D01*
X134751651Y-103432789D01*
X134809106Y-103415360D01*
X134862057Y-103387058D01*
X134908468Y-103348968D01*
X134918012Y-103337339D01*
X137621945Y-100633407D01*
X137633568Y-100623868D01*
X137671658Y-100577457D01*
X137699960Y-100524506D01*
X137717389Y-100467051D01*
X137721800Y-100422266D01*
X137721800Y-100422259D01*
X137723273Y-100407301D01*
X137721800Y-100392343D01*
X137721800Y-99428541D01*
X137971400Y-99428541D01*
X137971400Y-99611459D01*
X138007086Y-99790863D01*
X138077085Y-99959857D01*
X138178709Y-100111948D01*
X138308052Y-100241291D01*
X138460143Y-100342915D01*
X138629137Y-100412914D01*
X138808541Y-100448600D01*
X138991459Y-100448600D01*
X139170863Y-100412914D01*
X139339857Y-100342915D01*
X139485589Y-100245540D01*
X145644992Y-106404944D01*
X145654532Y-106416568D01*
X145700943Y-106454658D01*
X145753894Y-106482960D01*
X145793919Y-106495102D01*
X145811348Y-106500389D01*
X145816989Y-106500945D01*
X145856134Y-106504800D01*
X145856141Y-106504800D01*
X145870294Y-106506194D01*
X145870294Y-107100000D01*
X145874708Y-107144813D01*
X145887779Y-107187905D01*
X145909006Y-107227618D01*
X145937573Y-107262427D01*
X145972382Y-107290994D01*
X146012095Y-107312221D01*
X146055187Y-107325292D01*
X146100000Y-107329706D01*
X147900000Y-107329706D01*
X147944813Y-107325292D01*
X147987905Y-107312221D01*
X148027618Y-107290994D01*
X148062427Y-107262427D01*
X148090994Y-107227618D01*
X148112221Y-107187905D01*
X148125292Y-107144813D01*
X148129706Y-107100000D01*
X148129706Y-106088843D01*
X148411400Y-106088843D01*
X148411400Y-106311157D01*
X148454771Y-106529201D01*
X148539847Y-106734593D01*
X148663359Y-106919441D01*
X148820559Y-107076641D01*
X149005407Y-107200153D01*
X149210799Y-107285229D01*
X149428843Y-107328600D01*
X149651157Y-107328600D01*
X149869201Y-107285229D01*
X150074593Y-107200153D01*
X150259441Y-107076641D01*
X150416641Y-106919441D01*
X150540153Y-106734593D01*
X150625229Y-106529201D01*
X150668600Y-106311157D01*
X150668600Y-106088843D01*
X150625229Y-105870799D01*
X150540153Y-105665407D01*
X150416641Y-105480559D01*
X150259441Y-105323359D01*
X150074593Y-105199847D01*
X149869201Y-105114771D01*
X149651157Y-105071400D01*
X149428843Y-105071400D01*
X149210799Y-105114771D01*
X149005407Y-105199847D01*
X148820559Y-105323359D01*
X148663359Y-105480559D01*
X148539847Y-105665407D01*
X148454771Y-105870799D01*
X148411400Y-106088843D01*
X148129706Y-106088843D01*
X148129706Y-105300000D01*
X148125292Y-105255187D01*
X148112221Y-105212095D01*
X148090994Y-105172382D01*
X148062427Y-105137573D01*
X148027618Y-105109006D01*
X147987905Y-105087779D01*
X147944813Y-105074708D01*
X147900000Y-105070294D01*
X146100000Y-105070294D01*
X146055187Y-105074708D01*
X146012095Y-105087779D01*
X145972382Y-105109006D01*
X145937573Y-105137573D01*
X145909006Y-105172382D01*
X145887779Y-105212095D01*
X145874708Y-105255187D01*
X145870294Y-105300000D01*
X145870294Y-105768142D01*
X139809522Y-99707371D01*
X139828600Y-99611459D01*
X139828600Y-99428541D01*
X140571400Y-99428541D01*
X140571400Y-99611459D01*
X140607086Y-99790863D01*
X140677085Y-99959857D01*
X140778709Y-100111948D01*
X140908052Y-100241291D01*
X141060143Y-100342915D01*
X141229137Y-100412914D01*
X141408541Y-100448600D01*
X141591459Y-100448600D01*
X141770863Y-100412914D01*
X141939857Y-100342915D01*
X142091948Y-100241291D01*
X142221291Y-100111948D01*
X142322915Y-99959857D01*
X142392914Y-99790863D01*
X142428600Y-99611459D01*
X142428600Y-99428541D01*
X142392914Y-99249137D01*
X142322915Y-99080143D01*
X142221291Y-98928052D01*
X142178039Y-98884800D01*
X145124849Y-98884800D01*
X152644992Y-106404944D01*
X152654532Y-106416568D01*
X152700943Y-106454658D01*
X152753894Y-106482960D01*
X152793919Y-106495102D01*
X152811348Y-106500389D01*
X152816989Y-106500945D01*
X152856134Y-106504800D01*
X152856141Y-106504800D01*
X152870294Y-106506194D01*
X152870294Y-107100000D01*
X152874708Y-107144813D01*
X152887779Y-107187905D01*
X152909006Y-107227618D01*
X152937573Y-107262427D01*
X152972382Y-107290994D01*
X153012095Y-107312221D01*
X153055187Y-107325292D01*
X153100000Y-107329706D01*
X154900000Y-107329706D01*
X154944813Y-107325292D01*
X154987905Y-107312221D01*
X155027618Y-107290994D01*
X155062427Y-107262427D01*
X155090994Y-107227618D01*
X155112221Y-107187905D01*
X155125292Y-107144813D01*
X155129706Y-107100000D01*
X155129706Y-105300000D01*
X155125292Y-105255187D01*
X155112221Y-105212095D01*
X155102091Y-105193142D01*
X155553669Y-105644721D01*
X155539847Y-105665407D01*
X155454771Y-105870799D01*
X155411400Y-106088843D01*
X155411400Y-106311157D01*
X155454771Y-106529201D01*
X155539847Y-106734593D01*
X155663359Y-106919441D01*
X155820559Y-107076641D01*
X156005407Y-107200153D01*
X156210799Y-107285229D01*
X156428843Y-107328600D01*
X156651157Y-107328600D01*
X156869201Y-107285229D01*
X157074593Y-107200153D01*
X157259441Y-107076641D01*
X157416641Y-106919441D01*
X157540153Y-106734593D01*
X157625229Y-106529201D01*
X157668600Y-106311157D01*
X157668600Y-106088843D01*
X157625229Y-105870799D01*
X157540153Y-105665407D01*
X157416641Y-105480559D01*
X157259441Y-105323359D01*
X157074593Y-105199847D01*
X156869201Y-105114771D01*
X156651157Y-105071400D01*
X156428843Y-105071400D01*
X156210799Y-105114771D01*
X156005407Y-105199847D01*
X155984721Y-105213669D01*
X153164086Y-102393034D01*
X160388612Y-102393034D01*
X160463052Y-102583616D01*
X160678506Y-102683925D01*
X160909389Y-102740272D01*
X161146829Y-102750494D01*
X161381700Y-102714198D01*
X161604978Y-102632777D01*
X161696952Y-102583616D01*
X161771392Y-102393034D01*
X161080002Y-101701644D01*
X160388612Y-102393034D01*
X153164086Y-102393034D01*
X152464800Y-101693749D01*
X152464800Y-101606826D01*
X159869507Y-101606826D01*
X159905803Y-101841697D01*
X159987224Y-102064975D01*
X160036385Y-102156949D01*
X160226967Y-102231389D01*
X160918357Y-101539999D01*
X161241647Y-101539999D01*
X161933037Y-102231389D01*
X162123619Y-102156949D01*
X162223928Y-101941495D01*
X162280275Y-101710612D01*
X162290497Y-101473172D01*
X162254201Y-101238301D01*
X162172780Y-101015023D01*
X162123619Y-100923049D01*
X161933037Y-100848609D01*
X161241647Y-101539999D01*
X160918357Y-101539999D01*
X160226967Y-100848609D01*
X160036385Y-100923049D01*
X159936076Y-101138503D01*
X159879729Y-101369386D01*
X159869507Y-101606826D01*
X152464800Y-101606826D01*
X152464800Y-100686964D01*
X160388612Y-100686964D01*
X161080002Y-101378354D01*
X161771392Y-100686964D01*
X161696952Y-100496382D01*
X161481498Y-100396073D01*
X161250615Y-100339726D01*
X161013175Y-100329504D01*
X160778304Y-100365800D01*
X160555026Y-100447221D01*
X160463052Y-100496382D01*
X160388612Y-100686964D01*
X152464800Y-100686964D01*
X152464800Y-100058683D01*
X162942101Y-100058683D01*
X162942101Y-100251313D01*
X162979681Y-100440241D01*
X163053397Y-100618208D01*
X163160416Y-100778373D01*
X163296626Y-100914583D01*
X163456791Y-101021602D01*
X163634758Y-101095318D01*
X163823686Y-101132898D01*
X164016316Y-101132898D01*
X164205244Y-101095318D01*
X164383211Y-101021602D01*
X164543376Y-100914583D01*
X164679586Y-100778373D01*
X164786605Y-100618208D01*
X164860321Y-100440241D01*
X164897901Y-100251313D01*
X164897901Y-100058683D01*
X164860321Y-99869755D01*
X164786605Y-99691788D01*
X164679586Y-99531623D01*
X164543376Y-99395413D01*
X164383211Y-99288394D01*
X164205244Y-99214678D01*
X164016316Y-99177098D01*
X163823686Y-99177098D01*
X163634758Y-99214678D01*
X163456791Y-99288394D01*
X163296626Y-99395413D01*
X163160416Y-99531623D01*
X163053397Y-99691788D01*
X162979681Y-99869755D01*
X162942101Y-100058683D01*
X152464800Y-100058683D01*
X152464800Y-98673685D01*
X160102102Y-98673685D01*
X160102102Y-98866315D01*
X160139682Y-99055243D01*
X160213398Y-99233210D01*
X160320417Y-99393375D01*
X160456627Y-99529585D01*
X160616792Y-99636604D01*
X160794759Y-99710320D01*
X160983687Y-99747900D01*
X161176317Y-99747900D01*
X161365245Y-99710320D01*
X161543212Y-99636604D01*
X161703377Y-99529585D01*
X161839587Y-99393375D01*
X161946606Y-99233210D01*
X162020322Y-99055243D01*
X162057902Y-98866315D01*
X162057902Y-98673685D01*
X162020322Y-98484757D01*
X161946606Y-98306790D01*
X161839587Y-98146625D01*
X161703377Y-98010415D01*
X161543212Y-97903396D01*
X161365245Y-97829680D01*
X161176317Y-97792100D01*
X160983687Y-97792100D01*
X160794759Y-97829680D01*
X160616792Y-97903396D01*
X160456627Y-98010415D01*
X160320417Y-98146625D01*
X160213398Y-98306790D01*
X160139682Y-98484757D01*
X160102102Y-98673685D01*
X152464800Y-98673685D01*
X152464800Y-97288683D01*
X162942101Y-97288683D01*
X162942101Y-97481313D01*
X162979681Y-97670241D01*
X163053397Y-97848208D01*
X163160416Y-98008373D01*
X163296626Y-98144583D01*
X163456791Y-98251602D01*
X163634758Y-98325318D01*
X163823686Y-98362898D01*
X164016316Y-98362898D01*
X164205244Y-98325318D01*
X164383211Y-98251602D01*
X164543376Y-98144583D01*
X164679586Y-98008373D01*
X164786605Y-97848208D01*
X164860321Y-97670241D01*
X164897901Y-97481313D01*
X164897901Y-97288683D01*
X164860321Y-97099755D01*
X164786605Y-96921788D01*
X164679586Y-96761623D01*
X164543376Y-96625413D01*
X164383211Y-96518394D01*
X164205244Y-96444678D01*
X164016316Y-96407098D01*
X163823686Y-96407098D01*
X163634758Y-96444678D01*
X163456791Y-96518394D01*
X163296626Y-96625413D01*
X163160416Y-96761623D01*
X163053397Y-96921788D01*
X162979681Y-97099755D01*
X162942101Y-97288683D01*
X152464800Y-97288683D01*
X152464800Y-95903685D01*
X160102102Y-95903685D01*
X160102102Y-96096315D01*
X160139682Y-96285243D01*
X160213398Y-96463210D01*
X160320417Y-96623375D01*
X160456627Y-96759585D01*
X160616792Y-96866604D01*
X160794759Y-96940320D01*
X160983687Y-96977900D01*
X161176317Y-96977900D01*
X161365245Y-96940320D01*
X161543212Y-96866604D01*
X161703377Y-96759585D01*
X161839587Y-96623375D01*
X161946606Y-96463210D01*
X162020322Y-96285243D01*
X162057902Y-96096315D01*
X162057902Y-95903685D01*
X162020322Y-95714757D01*
X161946606Y-95536790D01*
X161839587Y-95376625D01*
X161703377Y-95240415D01*
X161543212Y-95133396D01*
X161365245Y-95059680D01*
X161176317Y-95022100D01*
X160983687Y-95022100D01*
X160794759Y-95059680D01*
X160616792Y-95133396D01*
X160456627Y-95240415D01*
X160320417Y-95376625D01*
X160213398Y-95536790D01*
X160139682Y-95714757D01*
X160102102Y-95903685D01*
X152464800Y-95903685D01*
X152464800Y-94518684D01*
X162942101Y-94518684D01*
X162942101Y-94711314D01*
X162979681Y-94900242D01*
X163053397Y-95078209D01*
X163160416Y-95238374D01*
X163296626Y-95374584D01*
X163456791Y-95481603D01*
X163634758Y-95555319D01*
X163823686Y-95592899D01*
X164016316Y-95592899D01*
X164205244Y-95555319D01*
X164383211Y-95481603D01*
X164543376Y-95374584D01*
X164679586Y-95238374D01*
X164786605Y-95078209D01*
X164860321Y-94900242D01*
X164897901Y-94711314D01*
X164897901Y-94518684D01*
X164860321Y-94329756D01*
X164786605Y-94151789D01*
X164679586Y-93991624D01*
X164543376Y-93855414D01*
X164383211Y-93748395D01*
X164205244Y-93674679D01*
X164016316Y-93637099D01*
X163823686Y-93637099D01*
X163634758Y-93674679D01*
X163456791Y-93748395D01*
X163296626Y-93855414D01*
X163160416Y-93991624D01*
X163053397Y-94151789D01*
X162979681Y-94329756D01*
X162942101Y-94518684D01*
X152464800Y-94518684D01*
X152464800Y-93133685D01*
X160102102Y-93133685D01*
X160102102Y-93326315D01*
X160139682Y-93515243D01*
X160213398Y-93693210D01*
X160320417Y-93853375D01*
X160456627Y-93989585D01*
X160616792Y-94096604D01*
X160794759Y-94170320D01*
X160983687Y-94207900D01*
X161176317Y-94207900D01*
X161365245Y-94170320D01*
X161543212Y-94096604D01*
X161703377Y-93989585D01*
X161839587Y-93853375D01*
X161946606Y-93693210D01*
X162020322Y-93515243D01*
X162057902Y-93326315D01*
X162057902Y-93133685D01*
X162020322Y-92944757D01*
X161946606Y-92766790D01*
X161839587Y-92606625D01*
X161703377Y-92470415D01*
X161543212Y-92363396D01*
X161365245Y-92289680D01*
X161176317Y-92252100D01*
X160983687Y-92252100D01*
X160794759Y-92289680D01*
X160616792Y-92363396D01*
X160456627Y-92470415D01*
X160320417Y-92606625D01*
X160213398Y-92766790D01*
X160139682Y-92944757D01*
X160102102Y-93133685D01*
X152464800Y-93133685D01*
X152464800Y-91748684D01*
X162942101Y-91748684D01*
X162942101Y-91941314D01*
X162979681Y-92130242D01*
X163053397Y-92308209D01*
X163160416Y-92468374D01*
X163296626Y-92604584D01*
X163456791Y-92711603D01*
X163634758Y-92785319D01*
X163823686Y-92822899D01*
X164016316Y-92822899D01*
X164205244Y-92785319D01*
X164383211Y-92711603D01*
X164543376Y-92604584D01*
X164679586Y-92468374D01*
X164786605Y-92308209D01*
X164860321Y-92130242D01*
X164897901Y-91941314D01*
X164897901Y-91748684D01*
X164860321Y-91559756D01*
X164786605Y-91381789D01*
X164679586Y-91221624D01*
X164543376Y-91085414D01*
X164383211Y-90978395D01*
X164205244Y-90904679D01*
X164016316Y-90867099D01*
X163823686Y-90867099D01*
X163634758Y-90904679D01*
X163456791Y-90978395D01*
X163296626Y-91085414D01*
X163160416Y-91221624D01*
X163053397Y-91381789D01*
X162979681Y-91559756D01*
X162942101Y-91748684D01*
X152464800Y-91748684D01*
X152464800Y-90363686D01*
X160102102Y-90363686D01*
X160102102Y-90556316D01*
X160139682Y-90745244D01*
X160213398Y-90923211D01*
X160320417Y-91083376D01*
X160456627Y-91219586D01*
X160616792Y-91326605D01*
X160794759Y-91400321D01*
X160983687Y-91437901D01*
X161176317Y-91437901D01*
X161365245Y-91400321D01*
X161543212Y-91326605D01*
X161703377Y-91219586D01*
X161839587Y-91083376D01*
X161946606Y-90923211D01*
X162020322Y-90745244D01*
X162057902Y-90556316D01*
X162057902Y-90363686D01*
X162020322Y-90174758D01*
X161946606Y-89996791D01*
X161839587Y-89836626D01*
X161703377Y-89700416D01*
X161543212Y-89593397D01*
X161365245Y-89519681D01*
X161176317Y-89482101D01*
X160983687Y-89482101D01*
X160794759Y-89519681D01*
X160616792Y-89593397D01*
X160456627Y-89700416D01*
X160320417Y-89836626D01*
X160213398Y-89996791D01*
X160139682Y-90174758D01*
X160102102Y-90363686D01*
X152464800Y-90363686D01*
X152464800Y-87239103D01*
X152474616Y-87237150D01*
X152670909Y-87155843D01*
X152847567Y-87037803D01*
X152997803Y-86887567D01*
X153115843Y-86710909D01*
X153197150Y-86514616D01*
X153238600Y-86306233D01*
X153238600Y-86093767D01*
X153197150Y-85885384D01*
X153115843Y-85689091D01*
X152997803Y-85512433D01*
X152847567Y-85362197D01*
X152670909Y-85244157D01*
X152474616Y-85162850D01*
X152266233Y-85121400D01*
X152053767Y-85121400D01*
X151845384Y-85162850D01*
X151649091Y-85244157D01*
X151472433Y-85362197D01*
X151322197Y-85512433D01*
X151204157Y-85689091D01*
X151122850Y-85885384D01*
X151081400Y-86093767D01*
X151081400Y-86306233D01*
X151122850Y-86514616D01*
X151204157Y-86710909D01*
X151322197Y-86887567D01*
X151472433Y-87037803D01*
X151649091Y-87155843D01*
X151845384Y-87237150D01*
X151855200Y-87239103D01*
X151855201Y-101805032D01*
X151853727Y-101820000D01*
X151859611Y-101879751D01*
X151877040Y-101937205D01*
X151877041Y-101937206D01*
X151905343Y-101990157D01*
X151943433Y-102036568D01*
X151955057Y-102046108D01*
X155006858Y-105097909D01*
X154987905Y-105087779D01*
X154944813Y-105074708D01*
X154900000Y-105070294D01*
X153100000Y-105070294D01*
X153055187Y-105074708D01*
X153012095Y-105087779D01*
X152972382Y-105109006D01*
X152937573Y-105137573D01*
X152909006Y-105172382D01*
X152887779Y-105212095D01*
X152874708Y-105255187D01*
X152870294Y-105300000D01*
X152870294Y-105768142D01*
X145477212Y-98375061D01*
X145467668Y-98363432D01*
X145421257Y-98325342D01*
X145368306Y-98297040D01*
X145310851Y-98279611D01*
X145266066Y-98275200D01*
X145266058Y-98275200D01*
X145251100Y-98273727D01*
X145236142Y-98275200D01*
X141514965Y-98275200D01*
X141500000Y-98273726D01*
X141485034Y-98275200D01*
X141440249Y-98279611D01*
X141382794Y-98297040D01*
X141329843Y-98325342D01*
X141283432Y-98363432D01*
X141245342Y-98409843D01*
X141217040Y-98462794D01*
X141199611Y-98520249D01*
X141193726Y-98580000D01*
X141195200Y-98594966D01*
X141195200Y-98641143D01*
X141060143Y-98697085D01*
X140908052Y-98798709D01*
X140778709Y-98928052D01*
X140677085Y-99080143D01*
X140607086Y-99249137D01*
X140571400Y-99428541D01*
X139828600Y-99428541D01*
X139792914Y-99249137D01*
X139722915Y-99080143D01*
X139621291Y-98928052D01*
X139491948Y-98798709D01*
X139339857Y-98697085D01*
X139170863Y-98627086D01*
X138991459Y-98591400D01*
X138808541Y-98591400D01*
X138629137Y-98627086D01*
X138460143Y-98697085D01*
X138308052Y-98798709D01*
X138178709Y-98928052D01*
X138077085Y-99080143D01*
X138007086Y-99249137D01*
X137971400Y-99428541D01*
X137721800Y-99428541D01*
X137721800Y-98966551D01*
X140764936Y-95923416D01*
X140808306Y-95910260D01*
X140861257Y-95881958D01*
X140907668Y-95843868D01*
X140917212Y-95832239D01*
X148554945Y-88194507D01*
X148566568Y-88184968D01*
X148604658Y-88138557D01*
X148632960Y-88085606D01*
X148650389Y-88028151D01*
X148654800Y-87983366D01*
X148654800Y-87983359D01*
X148656273Y-87968401D01*
X148654800Y-87953443D01*
X148654800Y-86688319D01*
X148664157Y-86710909D01*
X148782197Y-86887567D01*
X148932433Y-87037803D01*
X149109091Y-87155843D01*
X149305384Y-87237150D01*
X149513767Y-87278600D01*
X149726233Y-87278600D01*
X149934616Y-87237150D01*
X150130909Y-87155843D01*
X150307567Y-87037803D01*
X150457803Y-86887567D01*
X150575843Y-86710909D01*
X150657150Y-86514616D01*
X150698600Y-86306233D01*
X150698600Y-86093767D01*
X150657150Y-85885384D01*
X150575843Y-85689091D01*
X150457803Y-85512433D01*
X150307567Y-85362197D01*
X150130909Y-85244157D01*
X149934616Y-85162850D01*
X149726233Y-85121400D01*
X149513767Y-85121400D01*
X149305384Y-85162850D01*
X149109091Y-85244157D01*
X148932433Y-85362197D01*
X148782197Y-85512433D01*
X148664157Y-85689091D01*
X148654800Y-85711681D01*
X148654800Y-85056251D01*
X149100769Y-84610282D01*
X149109091Y-84615843D01*
X149305384Y-84697150D01*
X149513767Y-84738600D01*
X149726233Y-84738600D01*
X149934616Y-84697150D01*
X150130909Y-84615843D01*
X150307567Y-84497803D01*
X150457803Y-84347567D01*
X150575843Y-84170909D01*
X150657150Y-83974616D01*
X150698600Y-83766233D01*
X150698600Y-83553767D01*
X151081400Y-83553767D01*
X151081400Y-83766233D01*
X151122850Y-83974616D01*
X151204157Y-84170909D01*
X151322197Y-84347567D01*
X151472433Y-84497803D01*
X151649091Y-84615843D01*
X151845384Y-84697150D01*
X152053767Y-84738600D01*
X152266233Y-84738600D01*
X152474616Y-84697150D01*
X152670909Y-84615843D01*
X152847567Y-84497803D01*
X152997803Y-84347567D01*
X153115843Y-84170909D01*
X153197150Y-83974616D01*
X153238600Y-83766233D01*
X153238600Y-83553767D01*
X153197150Y-83345384D01*
X153191766Y-83332384D01*
X160747402Y-83332384D01*
X160747402Y-83677616D01*
X160814754Y-84016215D01*
X160946868Y-84335167D01*
X161138669Y-84622217D01*
X161382785Y-84866333D01*
X161669835Y-85058134D01*
X161988787Y-85190248D01*
X162327386Y-85257600D01*
X162672618Y-85257600D01*
X163011217Y-85190248D01*
X163330169Y-85058134D01*
X163617219Y-84866333D01*
X163861335Y-84622217D01*
X164053136Y-84335167D01*
X164185250Y-84016215D01*
X164252602Y-83677616D01*
X164252602Y-83332384D01*
X164185250Y-82993785D01*
X164053136Y-82674833D01*
X163861335Y-82387783D01*
X163617219Y-82143667D01*
X163330169Y-81951866D01*
X163011217Y-81819752D01*
X162672618Y-81752400D01*
X162327386Y-81752400D01*
X161988787Y-81819752D01*
X161669835Y-81951866D01*
X161382785Y-82143667D01*
X161138669Y-82387783D01*
X160946868Y-82674833D01*
X160814754Y-82993785D01*
X160747402Y-83332384D01*
X153191766Y-83332384D01*
X153115843Y-83149091D01*
X152997803Y-82972433D01*
X152847567Y-82822197D01*
X152670909Y-82704157D01*
X152474616Y-82622850D01*
X152266233Y-82581400D01*
X152053767Y-82581400D01*
X151845384Y-82622850D01*
X151649091Y-82704157D01*
X151472433Y-82822197D01*
X151322197Y-82972433D01*
X151204157Y-83149091D01*
X151122850Y-83345384D01*
X151081400Y-83553767D01*
X150698600Y-83553767D01*
X150657150Y-83345384D01*
X150575843Y-83149091D01*
X150457803Y-82972433D01*
X150307567Y-82822197D01*
X150130909Y-82704157D01*
X149934616Y-82622850D01*
X149726233Y-82581400D01*
X149513767Y-82581400D01*
X149305384Y-82622850D01*
X149109091Y-82704157D01*
X148932433Y-82822197D01*
X148782197Y-82972433D01*
X148664157Y-83149091D01*
X148582850Y-83345384D01*
X148541400Y-83553767D01*
X148541400Y-83766233D01*
X148582850Y-83974616D01*
X148664157Y-84170909D01*
X148669718Y-84179231D01*
X148145057Y-84703892D01*
X148133433Y-84713432D01*
X148095343Y-84759843D01*
X148087223Y-84775035D01*
X148067040Y-84812795D01*
X148049611Y-84870249D01*
X148043727Y-84930000D01*
X148045201Y-84944968D01*
X148045201Y-85711683D01*
X148035843Y-85689091D01*
X147917803Y-85512433D01*
X147767567Y-85362197D01*
X147590909Y-85244157D01*
X147394616Y-85162850D01*
X147186233Y-85121400D01*
X146973767Y-85121400D01*
X146765384Y-85162850D01*
X146569091Y-85244157D01*
X146392433Y-85362197D01*
X146242197Y-85512433D01*
X146124157Y-85689091D01*
X146114800Y-85711681D01*
X146114800Y-85056251D01*
X146560769Y-84610282D01*
X146569091Y-84615843D01*
X146765384Y-84697150D01*
X146973767Y-84738600D01*
X147186233Y-84738600D01*
X147394616Y-84697150D01*
X147590909Y-84615843D01*
X147767567Y-84497803D01*
X147917803Y-84347567D01*
X148035843Y-84170909D01*
X148117150Y-83974616D01*
X148158600Y-83766233D01*
X148158600Y-83553767D01*
X148117150Y-83345384D01*
X148035843Y-83149091D01*
X147917803Y-82972433D01*
X147767567Y-82822197D01*
X147590909Y-82704157D01*
X147394616Y-82622850D01*
X147186233Y-82581400D01*
X146973767Y-82581400D01*
X146765384Y-82622850D01*
X146569091Y-82704157D01*
X146392433Y-82822197D01*
X146242197Y-82972433D01*
X146124157Y-83149091D01*
X146042850Y-83345384D01*
X146001400Y-83553767D01*
X146001400Y-83766233D01*
X146042850Y-83974616D01*
X146124157Y-84170909D01*
X146129718Y-84179231D01*
X145605061Y-84703888D01*
X145593432Y-84713432D01*
X145555342Y-84759844D01*
X145527040Y-84812795D01*
X145509611Y-84870250D01*
X145505200Y-84915035D01*
X145505200Y-84915042D01*
X145503727Y-84930000D01*
X145505200Y-84944958D01*
X145505200Y-85711681D01*
X145495843Y-85689091D01*
X145377803Y-85512433D01*
X145227567Y-85362197D01*
X145050909Y-85244157D01*
X144854616Y-85162850D01*
X144646233Y-85121400D01*
X144433767Y-85121400D01*
X144225384Y-85162850D01*
X144029091Y-85244157D01*
X143852433Y-85362197D01*
X143702197Y-85512433D01*
X143584157Y-85689091D01*
X143502850Y-85885384D01*
X143461400Y-86093767D01*
X143461400Y-86306233D01*
X143502850Y-86514616D01*
X143584157Y-86710909D01*
X143702197Y-86887567D01*
X143852433Y-87037803D01*
X144029091Y-87155843D01*
X144225384Y-87237150D01*
X144433767Y-87278600D01*
X144646233Y-87278600D01*
X144854616Y-87237150D01*
X145050909Y-87155843D01*
X145227567Y-87037803D01*
X145377803Y-86887567D01*
X145495843Y-86710909D01*
X145505200Y-86688319D01*
X145505201Y-89063747D01*
X144632639Y-89936310D01*
X142273848Y-89936310D01*
X142258890Y-89934837D01*
X142243932Y-89936310D01*
X142243924Y-89936310D01*
X142199139Y-89940721D01*
X142141684Y-89958150D01*
X142088733Y-89986452D01*
X142071845Y-90000312D01*
X142053946Y-90015001D01*
X142053940Y-90015007D01*
X142042322Y-90024542D01*
X142032787Y-90036160D01*
X141295056Y-90773893D01*
X141283433Y-90783432D01*
X141245343Y-90829843D01*
X141230215Y-90858146D01*
X141217040Y-90882795D01*
X141199611Y-90940249D01*
X141193727Y-91000000D01*
X141195201Y-91014968D01*
X141195201Y-91021143D01*
X141060143Y-91077085D01*
X140908052Y-91178709D01*
X140778709Y-91308052D01*
X140677085Y-91460143D01*
X140607086Y-91629137D01*
X140571400Y-91808541D01*
X140571400Y-91991459D01*
X140607086Y-92170863D01*
X140677085Y-92339857D01*
X140778709Y-92491948D01*
X140908052Y-92621291D01*
X141060143Y-92722915D01*
X141229137Y-92792914D01*
X141408541Y-92828600D01*
X141591459Y-92828600D01*
X141770863Y-92792914D01*
X141939857Y-92722915D01*
X142091948Y-92621291D01*
X142221291Y-92491948D01*
X142322915Y-92339857D01*
X142392914Y-92170863D01*
X142428600Y-91991459D01*
X142428600Y-91808541D01*
X142392914Y-91629137D01*
X142322915Y-91460143D01*
X142221291Y-91308052D01*
X142091948Y-91178709D01*
X141939857Y-91077085D01*
X141879123Y-91051928D01*
X142385143Y-90545910D01*
X144743932Y-90545910D01*
X144758890Y-90547383D01*
X144773848Y-90545910D01*
X144773856Y-90545910D01*
X144818641Y-90541499D01*
X144876096Y-90524070D01*
X144929047Y-90495768D01*
X144975458Y-90457678D01*
X144985002Y-90446049D01*
X146014944Y-89416108D01*
X146026568Y-89406568D01*
X146064658Y-89360157D01*
X146092960Y-89307206D01*
X146110389Y-89249751D01*
X146114800Y-89204966D01*
X146114800Y-89204959D01*
X146116273Y-89190001D01*
X146114800Y-89175043D01*
X146114800Y-86688319D01*
X146124157Y-86710909D01*
X146242197Y-86887567D01*
X146392433Y-87037803D01*
X146569091Y-87155843D01*
X146765384Y-87237150D01*
X146973767Y-87278600D01*
X147186233Y-87278600D01*
X147394616Y-87237150D01*
X147590909Y-87155843D01*
X147767567Y-87037803D01*
X147917803Y-86887567D01*
X148035843Y-86710909D01*
X148045200Y-86688319D01*
X148045200Y-87842148D01*
X140556166Y-95331183D01*
X140512794Y-95344340D01*
X140459843Y-95372642D01*
X140413432Y-95410732D01*
X140403892Y-95422356D01*
X137212057Y-98614192D01*
X137200433Y-98623732D01*
X137162343Y-98670143D01*
X137160450Y-98673685D01*
X137134040Y-98723095D01*
X137116611Y-98780549D01*
X137110727Y-98840300D01*
X137112201Y-98855268D01*
X137112200Y-100281048D01*
X134565649Y-102827600D01*
X133262078Y-102827600D01*
X133263094Y-102825147D01*
X133279200Y-102744178D01*
X133279200Y-102661622D01*
X133263094Y-102580653D01*
X133231502Y-102504382D01*
X133185636Y-102435739D01*
X133164900Y-102415003D01*
X133164900Y-92039057D01*
X133166373Y-92024099D01*
X133164900Y-92009141D01*
X133164900Y-92009134D01*
X133160489Y-91964349D01*
X133143060Y-91906894D01*
X133114758Y-91853943D01*
X133076668Y-91807532D01*
X133065045Y-91797993D01*
X132112815Y-90845764D01*
X132160909Y-90825843D01*
X132337567Y-90707803D01*
X132487803Y-90557567D01*
X132605843Y-90380909D01*
X132687150Y-90184616D01*
X132728600Y-89976233D01*
X132728600Y-89763767D01*
X132687150Y-89555384D01*
X132605843Y-89359091D01*
X132487803Y-89182433D01*
X132337567Y-89032197D01*
X132160909Y-88914157D01*
X131964616Y-88832850D01*
X131756233Y-88791400D01*
X131543767Y-88791400D01*
X131335384Y-88832850D01*
X131139091Y-88914157D01*
X130962433Y-89032197D01*
X130812197Y-89182433D01*
X130694157Y-89359091D01*
X130612850Y-89555384D01*
X130571400Y-89763767D01*
X129853600Y-89763767D01*
X129853600Y-84683767D01*
X130571400Y-84683767D01*
X130571400Y-84896233D01*
X130612850Y-85104616D01*
X130694157Y-85300909D01*
X130812197Y-85477567D01*
X130962433Y-85627803D01*
X131139091Y-85745843D01*
X131335384Y-85827150D01*
X131345201Y-85829103D01*
X131345201Y-85853924D01*
X131343726Y-85868900D01*
X131349611Y-85928651D01*
X131367040Y-85986106D01*
X131395342Y-86039057D01*
X131433432Y-86085468D01*
X131479843Y-86123558D01*
X131532794Y-86151860D01*
X131590249Y-86169289D01*
X131635034Y-86173700D01*
X131635035Y-86173700D01*
X131650000Y-86175174D01*
X131659215Y-86174266D01*
X131736349Y-86251400D01*
X131543767Y-86251400D01*
X131335384Y-86292850D01*
X131139091Y-86374157D01*
X130962433Y-86492197D01*
X130812197Y-86642433D01*
X130694157Y-86819091D01*
X130612850Y-87015384D01*
X130571400Y-87223767D01*
X130571400Y-87436233D01*
X130612850Y-87644616D01*
X130694157Y-87840909D01*
X130812197Y-88017567D01*
X130962433Y-88167803D01*
X131139091Y-88285843D01*
X131335384Y-88367150D01*
X131543767Y-88408600D01*
X131756233Y-88408600D01*
X131964616Y-88367150D01*
X132160909Y-88285843D01*
X132337567Y-88167803D01*
X132487803Y-88017567D01*
X132605843Y-87840909D01*
X132687150Y-87644616D01*
X132728600Y-87436233D01*
X132728600Y-87243651D01*
X134521300Y-89036352D01*
X134521301Y-100786002D01*
X134500564Y-100806739D01*
X134454698Y-100875382D01*
X134423106Y-100951653D01*
X134407000Y-101032622D01*
X134407000Y-101115178D01*
X134423106Y-101196147D01*
X134454698Y-101272418D01*
X134500564Y-101341061D01*
X134558939Y-101399436D01*
X134627582Y-101445302D01*
X134703853Y-101476894D01*
X134784822Y-101493000D01*
X134867378Y-101493000D01*
X134948347Y-101476894D01*
X135024618Y-101445302D01*
X135093261Y-101399436D01*
X135151636Y-101341061D01*
X135197502Y-101272418D01*
X135229094Y-101196147D01*
X135245200Y-101115178D01*
X135245200Y-101032622D01*
X135229094Y-100951653D01*
X135197502Y-100875382D01*
X135151636Y-100806739D01*
X135130900Y-100786003D01*
X135130900Y-100445547D01*
X135162095Y-100462221D01*
X135205187Y-100475292D01*
X135250000Y-100479706D01*
X136750000Y-100479706D01*
X136794813Y-100475292D01*
X136837905Y-100462221D01*
X136877618Y-100440994D01*
X136912427Y-100412427D01*
X136940994Y-100377618D01*
X136962221Y-100337905D01*
X136975292Y-100294813D01*
X136979706Y-100250000D01*
X136979706Y-98750000D01*
X136975292Y-98705187D01*
X136962221Y-98662095D01*
X136940994Y-98622382D01*
X136912427Y-98587573D01*
X136877618Y-98559006D01*
X136837905Y-98537779D01*
X136794813Y-98524708D01*
X136750000Y-98520294D01*
X135250000Y-98520294D01*
X135205187Y-98524708D01*
X135162095Y-98537779D01*
X135130900Y-98554453D01*
X135130900Y-92339012D01*
X135132776Y-92343541D01*
X135239872Y-92503821D01*
X135376179Y-92640128D01*
X135536459Y-92747224D01*
X135714553Y-92820993D01*
X135903616Y-92858600D01*
X136096384Y-92858600D01*
X136285447Y-92820993D01*
X136463541Y-92747224D01*
X136623821Y-92640128D01*
X136760128Y-92503821D01*
X136867224Y-92343541D01*
X136940993Y-92165447D01*
X136978600Y-91976384D01*
X136978600Y-91808541D01*
X137971400Y-91808541D01*
X137971400Y-91991459D01*
X138007086Y-92170863D01*
X138077085Y-92339857D01*
X138178709Y-92491948D01*
X138308052Y-92621291D01*
X138460143Y-92722915D01*
X138629137Y-92792914D01*
X138808541Y-92828600D01*
X138991459Y-92828600D01*
X139170863Y-92792914D01*
X139339857Y-92722915D01*
X139491948Y-92621291D01*
X139621291Y-92491948D01*
X139722915Y-92339857D01*
X139792914Y-92170863D01*
X139828600Y-91991459D01*
X139828600Y-91808541D01*
X139792914Y-91629137D01*
X139736972Y-91494079D01*
X142204945Y-89026107D01*
X142216568Y-89016568D01*
X142254658Y-88970157D01*
X142282960Y-88917206D01*
X142300389Y-88859751D01*
X142304800Y-88814966D01*
X142304800Y-88814959D01*
X142306273Y-88800001D01*
X142304800Y-88785043D01*
X142304800Y-87279706D01*
X142600000Y-87279706D01*
X142693586Y-87270489D01*
X142783576Y-87243191D01*
X142866510Y-87198861D01*
X142939203Y-87139203D01*
X142998861Y-87066510D01*
X143043191Y-86983576D01*
X143070489Y-86893586D01*
X143079706Y-86800000D01*
X143079706Y-85600000D01*
X143070489Y-85506414D01*
X143043191Y-85416424D01*
X142998861Y-85333490D01*
X142939203Y-85260797D01*
X142866510Y-85201139D01*
X142783576Y-85156809D01*
X142693586Y-85129511D01*
X142600000Y-85120294D01*
X141400000Y-85120294D01*
X141306414Y-85129511D01*
X141216424Y-85156809D01*
X141133490Y-85201139D01*
X141060797Y-85260797D01*
X141001139Y-85333490D01*
X140956809Y-85416424D01*
X140929511Y-85506414D01*
X140920294Y-85600000D01*
X140920294Y-86800000D01*
X140929511Y-86893586D01*
X140956809Y-86983576D01*
X141001139Y-87066510D01*
X141060797Y-87139203D01*
X141133490Y-87198861D01*
X141216424Y-87243191D01*
X141306414Y-87270489D01*
X141400000Y-87279706D01*
X141695201Y-87279706D01*
X141695200Y-88673748D01*
X139305921Y-91063028D01*
X139170863Y-91007086D01*
X138991459Y-90971400D01*
X138808541Y-90971400D01*
X138629137Y-91007086D01*
X138460143Y-91077085D01*
X138308052Y-91178709D01*
X138178709Y-91308052D01*
X138077085Y-91460143D01*
X138007086Y-91629137D01*
X137971400Y-91808541D01*
X136978600Y-91808541D01*
X136978600Y-91783616D01*
X136940993Y-91594553D01*
X136867224Y-91416459D01*
X136760128Y-91256179D01*
X136623821Y-91119872D01*
X136463541Y-91012776D01*
X136285447Y-90939007D01*
X136096384Y-90901400D01*
X135903616Y-90901400D01*
X135714553Y-90939007D01*
X135536459Y-91012776D01*
X135376179Y-91119872D01*
X135239872Y-91256179D01*
X135132776Y-91416459D01*
X135130900Y-91420988D01*
X135130900Y-88925057D01*
X135132373Y-88910099D01*
X135130900Y-88895141D01*
X135130900Y-88895134D01*
X135126489Y-88850349D01*
X135109060Y-88792894D01*
X135080758Y-88739943D01*
X135042668Y-88693532D01*
X135031045Y-88683993D01*
X132112815Y-85765764D01*
X132160909Y-85745843D01*
X132337567Y-85627803D01*
X132487803Y-85477567D01*
X132605843Y-85300909D01*
X132687150Y-85104616D01*
X132728600Y-84896233D01*
X132728600Y-84683767D01*
X132687150Y-84475384D01*
X132605843Y-84279091D01*
X132487803Y-84102433D01*
X132337567Y-83952197D01*
X132160909Y-83834157D01*
X131964616Y-83752850D01*
X131756233Y-83711400D01*
X131543767Y-83711400D01*
X131335384Y-83752850D01*
X131139091Y-83834157D01*
X130962433Y-83952197D01*
X130812197Y-84102433D01*
X130694157Y-84279091D01*
X130612850Y-84475384D01*
X130571400Y-84683767D01*
X129853600Y-84683767D01*
X129853600Y-83553767D01*
X140921400Y-83553767D01*
X140921400Y-83766233D01*
X140962850Y-83974616D01*
X141044157Y-84170909D01*
X141162197Y-84347567D01*
X141312433Y-84497803D01*
X141489091Y-84615843D01*
X141685384Y-84697150D01*
X141893767Y-84738600D01*
X142106233Y-84738600D01*
X142314616Y-84697150D01*
X142510909Y-84615843D01*
X142557155Y-84584942D01*
X143776702Y-84584942D01*
X143863329Y-84785817D01*
X144095967Y-84896196D01*
X144345669Y-84959069D01*
X144602839Y-84972020D01*
X144857594Y-84934550D01*
X145100145Y-84848101D01*
X145216671Y-84785817D01*
X145303298Y-84584942D01*
X144540000Y-83821645D01*
X143776702Y-84584942D01*
X142557155Y-84584942D01*
X142687567Y-84497803D01*
X142837803Y-84347567D01*
X142955843Y-84170909D01*
X143037150Y-83974616D01*
X143078600Y-83766233D01*
X143078600Y-83722839D01*
X143227980Y-83722839D01*
X143265450Y-83977594D01*
X143351899Y-84220145D01*
X143414183Y-84336671D01*
X143615058Y-84423298D01*
X144378355Y-83660000D01*
X144701645Y-83660000D01*
X145464942Y-84423298D01*
X145665817Y-84336671D01*
X145776196Y-84104033D01*
X145839069Y-83854331D01*
X145852020Y-83597161D01*
X145814550Y-83342406D01*
X145728101Y-83099855D01*
X145665817Y-82983329D01*
X145464942Y-82896702D01*
X144701645Y-83660000D01*
X144378355Y-83660000D01*
X143615058Y-82896702D01*
X143414183Y-82983329D01*
X143303804Y-83215967D01*
X143240931Y-83465669D01*
X143227980Y-83722839D01*
X143078600Y-83722839D01*
X143078600Y-83553767D01*
X143037150Y-83345384D01*
X142955843Y-83149091D01*
X142837803Y-82972433D01*
X142687567Y-82822197D01*
X142557156Y-82735058D01*
X143776702Y-82735058D01*
X144540000Y-83498355D01*
X145303298Y-82735058D01*
X145216671Y-82534183D01*
X144984033Y-82423804D01*
X144734331Y-82360931D01*
X144477161Y-82347980D01*
X144222406Y-82385450D01*
X143979855Y-82471899D01*
X143863329Y-82534183D01*
X143776702Y-82735058D01*
X142557156Y-82735058D01*
X142510909Y-82704157D01*
X142314616Y-82622850D01*
X142106233Y-82581400D01*
X141893767Y-82581400D01*
X141685384Y-82622850D01*
X141489091Y-82704157D01*
X141312433Y-82822197D01*
X141162197Y-82972433D01*
X141044157Y-83149091D01*
X140962850Y-83345384D01*
X140921400Y-83553767D01*
X129853600Y-83553767D01*
X129853600Y-81400000D01*
X130570294Y-81400000D01*
X130570294Y-83100000D01*
X130574708Y-83144813D01*
X130587779Y-83187905D01*
X130609006Y-83227618D01*
X130637573Y-83262427D01*
X130672382Y-83290994D01*
X130712095Y-83312221D01*
X130755187Y-83325292D01*
X130800000Y-83329706D01*
X132500000Y-83329706D01*
X132544813Y-83325292D01*
X132587905Y-83312221D01*
X132627618Y-83290994D01*
X132662427Y-83262427D01*
X132690994Y-83227618D01*
X132712221Y-83187905D01*
X132725292Y-83144813D01*
X132729706Y-83100000D01*
X132729706Y-81400000D01*
X132725292Y-81355187D01*
X132712221Y-81312095D01*
X132690994Y-81272382D01*
X132662427Y-81237573D01*
X132627618Y-81209006D01*
X132587905Y-81187779D01*
X132544813Y-81174708D01*
X132500000Y-81170294D01*
X130800000Y-81170294D01*
X130755187Y-81174708D01*
X130712095Y-81187779D01*
X130672382Y-81209006D01*
X130637573Y-81237573D01*
X130609006Y-81272382D01*
X130587779Y-81312095D01*
X130574708Y-81355187D01*
X130570294Y-81400000D01*
X129853600Y-81400000D01*
X129853600Y-80453600D01*
X165746401Y-80453600D01*
X165746400Y-111746400D01*
G04 #@! TA.AperFunction,Conductor*
D23*
G36*
X165746400Y-111746400D02*
G01*
X129853600Y-111746400D01*
X129853600Y-110506601D01*
X130381720Y-110506601D01*
X130419565Y-110631377D01*
X130529316Y-110862942D01*
X130682134Y-111068646D01*
X130872147Y-111240584D01*
X131092052Y-111372149D01*
X131333399Y-111458285D01*
X131535700Y-111377898D01*
X131535700Y-110304300D01*
X131764300Y-110304300D01*
X131764300Y-111377898D01*
X131966601Y-111458285D01*
X132207948Y-111372149D01*
X132427853Y-111240584D01*
X132617866Y-111068646D01*
X132770684Y-110862942D01*
X132880435Y-110631377D01*
X132918280Y-110506601D01*
X132837411Y-110304300D01*
X131764300Y-110304300D01*
X131535700Y-110304300D01*
X130462589Y-110304300D01*
X130381720Y-110506601D01*
X129853600Y-110506601D01*
X129853600Y-109873399D01*
X130381720Y-109873399D01*
X130462589Y-110075700D01*
X131535700Y-110075700D01*
X131535700Y-109002102D01*
X131764300Y-109002102D01*
X131764300Y-110075700D01*
X132837411Y-110075700D01*
X132918280Y-109873399D01*
X132880435Y-109748623D01*
X132770684Y-109517058D01*
X132617866Y-109311354D01*
X132427853Y-109139416D01*
X132207948Y-109007851D01*
X131966601Y-108921715D01*
X131764300Y-109002102D01*
X131535700Y-109002102D01*
X131333399Y-108921715D01*
X131092052Y-109007851D01*
X130872147Y-109139416D01*
X130682134Y-109311354D01*
X130529316Y-109517058D01*
X130419565Y-109748623D01*
X130381720Y-109873399D01*
X129853600Y-109873399D01*
X129853600Y-107543767D01*
X130571400Y-107543767D01*
X130571400Y-107756233D01*
X130612850Y-107964616D01*
X130694157Y-108160909D01*
X130812197Y-108337567D01*
X130962433Y-108487803D01*
X131139091Y-108605843D01*
X131335384Y-108687150D01*
X131543767Y-108728600D01*
X131756233Y-108728600D01*
X131964616Y-108687150D01*
X132160909Y-108605843D01*
X132337567Y-108487803D01*
X132487803Y-108337567D01*
X132497948Y-108322384D01*
X160747402Y-108322384D01*
X160747402Y-108667616D01*
X160814754Y-109006215D01*
X160946868Y-109325167D01*
X161138669Y-109612217D01*
X161382785Y-109856333D01*
X161669835Y-110048134D01*
X161988787Y-110180248D01*
X162327386Y-110247600D01*
X162672618Y-110247600D01*
X163011217Y-110180248D01*
X163330169Y-110048134D01*
X163617219Y-109856333D01*
X163861335Y-109612217D01*
X164053136Y-109325167D01*
X164185250Y-109006215D01*
X164252602Y-108667616D01*
X164252602Y-108322384D01*
X164185250Y-107983785D01*
X164053136Y-107664833D01*
X163861335Y-107377783D01*
X163617219Y-107133667D01*
X163330169Y-106941866D01*
X163011217Y-106809752D01*
X162672618Y-106742400D01*
X162327386Y-106742400D01*
X161988787Y-106809752D01*
X161669835Y-106941866D01*
X161382785Y-107133667D01*
X161138669Y-107377783D01*
X160946868Y-107664833D01*
X160814754Y-107983785D01*
X160747402Y-108322384D01*
X132497948Y-108322384D01*
X132605843Y-108160909D01*
X132687150Y-107964616D01*
X132728600Y-107756233D01*
X132728600Y-107543767D01*
X132687150Y-107335384D01*
X132605843Y-107139091D01*
X132487803Y-106962433D01*
X132337567Y-106812197D01*
X132160909Y-106694157D01*
X131964616Y-106612850D01*
X131756233Y-106571400D01*
X131543767Y-106571400D01*
X131335384Y-106612850D01*
X131139091Y-106694157D01*
X130962433Y-106812197D01*
X130812197Y-106962433D01*
X130694157Y-107139091D01*
X130612850Y-107335384D01*
X130571400Y-107543767D01*
X129853600Y-107543767D01*
X129853600Y-105003767D01*
X130571400Y-105003767D01*
X130571400Y-105216233D01*
X130612850Y-105424616D01*
X130694157Y-105620909D01*
X130812197Y-105797567D01*
X130962433Y-105947803D01*
X131139091Y-106065843D01*
X131335384Y-106147150D01*
X131543767Y-106188600D01*
X131756233Y-106188600D01*
X131964616Y-106147150D01*
X132160909Y-106065843D01*
X132337567Y-105947803D01*
X132487803Y-105797567D01*
X132605843Y-105620909D01*
X132687150Y-105424616D01*
X132728600Y-105216233D01*
X132728600Y-105003767D01*
X132687150Y-104795384D01*
X132605843Y-104599091D01*
X132487803Y-104422433D01*
X132337567Y-104272197D01*
X132160909Y-104154157D01*
X131964616Y-104072850D01*
X131756233Y-104031400D01*
X131543767Y-104031400D01*
X131335384Y-104072850D01*
X131139091Y-104154157D01*
X130962433Y-104272197D01*
X130812197Y-104422433D01*
X130694157Y-104599091D01*
X130612850Y-104795384D01*
X130571400Y-105003767D01*
X129853600Y-105003767D01*
X129853600Y-89763767D01*
X130571400Y-89763767D01*
X130571400Y-89976233D01*
X130612850Y-90184616D01*
X130694157Y-90380909D01*
X130812197Y-90557567D01*
X130962433Y-90707803D01*
X131139091Y-90825843D01*
X131335384Y-90907150D01*
X131345201Y-90909103D01*
X131345201Y-90933924D01*
X131343726Y-90948900D01*
X131349611Y-91008651D01*
X131367040Y-91066106D01*
X131395342Y-91119057D01*
X131433432Y-91165468D01*
X131479843Y-91203558D01*
X131532794Y-91231860D01*
X131590249Y-91249289D01*
X131635034Y-91253700D01*
X131635035Y-91253700D01*
X131650000Y-91255174D01*
X131659215Y-91254266D01*
X131736349Y-91331400D01*
X131543767Y-91331400D01*
X131335384Y-91372850D01*
X131139091Y-91454157D01*
X130962433Y-91572197D01*
X130812197Y-91722433D01*
X130694157Y-91899091D01*
X130612850Y-92095384D01*
X130571400Y-92303767D01*
X130571400Y-92516233D01*
X130612850Y-92724616D01*
X130694157Y-92920909D01*
X130812197Y-93097567D01*
X130962433Y-93247803D01*
X131139091Y-93365843D01*
X131335384Y-93447150D01*
X131543767Y-93488600D01*
X131756233Y-93488600D01*
X131964616Y-93447150D01*
X132160909Y-93365843D01*
X132337567Y-93247803D01*
X132487803Y-93097567D01*
X132555300Y-92996551D01*
X132555300Y-94363449D01*
X132487803Y-94262433D01*
X132337567Y-94112197D01*
X132160909Y-93994157D01*
X131964616Y-93912850D01*
X131756233Y-93871400D01*
X131543767Y-93871400D01*
X131335384Y-93912850D01*
X131139091Y-93994157D01*
X130962433Y-94112197D01*
X130812197Y-94262433D01*
X130694157Y-94439091D01*
X130612850Y-94635384D01*
X130571400Y-94843767D01*
X130571400Y-95056233D01*
X130612850Y-95264616D01*
X130694157Y-95460909D01*
X130812197Y-95637567D01*
X130962433Y-95787803D01*
X131139091Y-95905843D01*
X131335384Y-95987150D01*
X131543767Y-96028600D01*
X131756233Y-96028600D01*
X131964616Y-95987150D01*
X132160909Y-95905843D01*
X132337567Y-95787803D01*
X132487803Y-95637567D01*
X132555300Y-95536551D01*
X132555300Y-96903449D01*
X132487803Y-96802433D01*
X132337567Y-96652197D01*
X132160909Y-96534157D01*
X131964616Y-96452850D01*
X131756233Y-96411400D01*
X131543767Y-96411400D01*
X131335384Y-96452850D01*
X131139091Y-96534157D01*
X130962433Y-96652197D01*
X130812197Y-96802433D01*
X130694157Y-96979091D01*
X130612850Y-97175384D01*
X130571400Y-97383767D01*
X130571400Y-97596233D01*
X130612850Y-97804616D01*
X130694157Y-98000909D01*
X130812197Y-98177567D01*
X130962433Y-98327803D01*
X131139091Y-98445843D01*
X131335384Y-98527150D01*
X131543767Y-98568600D01*
X131756233Y-98568600D01*
X131964616Y-98527150D01*
X132160909Y-98445843D01*
X132337567Y-98327803D01*
X132487803Y-98177567D01*
X132555301Y-98076551D01*
X132555301Y-99443450D01*
X132487803Y-99342433D01*
X132337567Y-99192197D01*
X132160909Y-99074157D01*
X131964616Y-98992850D01*
X131756233Y-98951400D01*
X131543767Y-98951400D01*
X131335384Y-98992850D01*
X131139091Y-99074157D01*
X130962433Y-99192197D01*
X130812197Y-99342433D01*
X130694157Y-99519091D01*
X130612850Y-99715384D01*
X130571400Y-99923767D01*
X130571400Y-100136233D01*
X130612850Y-100344616D01*
X130694157Y-100540909D01*
X130812197Y-100717567D01*
X130962433Y-100867803D01*
X131139091Y-100985843D01*
X131335384Y-101067150D01*
X131543767Y-101108600D01*
X131756233Y-101108600D01*
X131964616Y-101067150D01*
X132160909Y-100985843D01*
X132337567Y-100867803D01*
X132487803Y-100717567D01*
X132555301Y-100616550D01*
X132555301Y-101983450D01*
X132487803Y-101882433D01*
X132337567Y-101732197D01*
X132160909Y-101614157D01*
X131964616Y-101532850D01*
X131756233Y-101491400D01*
X131543767Y-101491400D01*
X131335384Y-101532850D01*
X131139091Y-101614157D01*
X130962433Y-101732197D01*
X130812197Y-101882433D01*
X130694157Y-102059091D01*
X130612850Y-102255384D01*
X130571400Y-102463767D01*
X130571400Y-102676233D01*
X130612850Y-102884616D01*
X130694157Y-103080909D01*
X130812197Y-103257567D01*
X130962433Y-103407803D01*
X131139091Y-103525843D01*
X131335384Y-103607150D01*
X131543767Y-103648600D01*
X131756233Y-103648600D01*
X131964616Y-103607150D01*
X132160909Y-103525843D01*
X132293572Y-103437200D01*
X134676942Y-103437200D01*
X134691900Y-103438673D01*
X134706858Y-103437200D01*
X134706866Y-103437200D01*
X134751651Y-103432789D01*
X134809106Y-103415360D01*
X134862057Y-103387058D01*
X134908468Y-103348968D01*
X134918012Y-103337339D01*
X137621945Y-100633407D01*
X137633568Y-100623868D01*
X137671658Y-100577457D01*
X137699960Y-100524506D01*
X137717389Y-100467051D01*
X137721800Y-100422266D01*
X137721800Y-100422259D01*
X137723273Y-100407301D01*
X137721800Y-100392343D01*
X137721800Y-99428541D01*
X137971400Y-99428541D01*
X137971400Y-99611459D01*
X138007086Y-99790863D01*
X138077085Y-99959857D01*
X138178709Y-100111948D01*
X138308052Y-100241291D01*
X138460143Y-100342915D01*
X138629137Y-100412914D01*
X138808541Y-100448600D01*
X138991459Y-100448600D01*
X139170863Y-100412914D01*
X139339857Y-100342915D01*
X139485589Y-100245540D01*
X145644992Y-106404944D01*
X145654532Y-106416568D01*
X145700943Y-106454658D01*
X145753894Y-106482960D01*
X145793919Y-106495102D01*
X145811348Y-106500389D01*
X145816989Y-106500945D01*
X145856134Y-106504800D01*
X145856141Y-106504800D01*
X145870294Y-106506194D01*
X145870294Y-107100000D01*
X145874708Y-107144813D01*
X145887779Y-107187905D01*
X145909006Y-107227618D01*
X145937573Y-107262427D01*
X145972382Y-107290994D01*
X146012095Y-107312221D01*
X146055187Y-107325292D01*
X146100000Y-107329706D01*
X147900000Y-107329706D01*
X147944813Y-107325292D01*
X147987905Y-107312221D01*
X148027618Y-107290994D01*
X148062427Y-107262427D01*
X148090994Y-107227618D01*
X148112221Y-107187905D01*
X148125292Y-107144813D01*
X148129706Y-107100000D01*
X148129706Y-106088843D01*
X148411400Y-106088843D01*
X148411400Y-106311157D01*
X148454771Y-106529201D01*
X148539847Y-106734593D01*
X148663359Y-106919441D01*
X148820559Y-107076641D01*
X149005407Y-107200153D01*
X149210799Y-107285229D01*
X149428843Y-107328600D01*
X149651157Y-107328600D01*
X149869201Y-107285229D01*
X150074593Y-107200153D01*
X150259441Y-107076641D01*
X150416641Y-106919441D01*
X150540153Y-106734593D01*
X150625229Y-106529201D01*
X150668600Y-106311157D01*
X150668600Y-106088843D01*
X150625229Y-105870799D01*
X150540153Y-105665407D01*
X150416641Y-105480559D01*
X150259441Y-105323359D01*
X150074593Y-105199847D01*
X149869201Y-105114771D01*
X149651157Y-105071400D01*
X149428843Y-105071400D01*
X149210799Y-105114771D01*
X149005407Y-105199847D01*
X148820559Y-105323359D01*
X148663359Y-105480559D01*
X148539847Y-105665407D01*
X148454771Y-105870799D01*
X148411400Y-106088843D01*
X148129706Y-106088843D01*
X148129706Y-105300000D01*
X148125292Y-105255187D01*
X148112221Y-105212095D01*
X148090994Y-105172382D01*
X148062427Y-105137573D01*
X148027618Y-105109006D01*
X147987905Y-105087779D01*
X147944813Y-105074708D01*
X147900000Y-105070294D01*
X146100000Y-105070294D01*
X146055187Y-105074708D01*
X146012095Y-105087779D01*
X145972382Y-105109006D01*
X145937573Y-105137573D01*
X145909006Y-105172382D01*
X145887779Y-105212095D01*
X145874708Y-105255187D01*
X145870294Y-105300000D01*
X145870294Y-105768142D01*
X139809522Y-99707371D01*
X139828600Y-99611459D01*
X139828600Y-99428541D01*
X140571400Y-99428541D01*
X140571400Y-99611459D01*
X140607086Y-99790863D01*
X140677085Y-99959857D01*
X140778709Y-100111948D01*
X140908052Y-100241291D01*
X141060143Y-100342915D01*
X141229137Y-100412914D01*
X141408541Y-100448600D01*
X141591459Y-100448600D01*
X141770863Y-100412914D01*
X141939857Y-100342915D01*
X142091948Y-100241291D01*
X142221291Y-100111948D01*
X142322915Y-99959857D01*
X142392914Y-99790863D01*
X142428600Y-99611459D01*
X142428600Y-99428541D01*
X142392914Y-99249137D01*
X142322915Y-99080143D01*
X142221291Y-98928052D01*
X142178039Y-98884800D01*
X145124849Y-98884800D01*
X152644992Y-106404944D01*
X152654532Y-106416568D01*
X152700943Y-106454658D01*
X152753894Y-106482960D01*
X152793919Y-106495102D01*
X152811348Y-106500389D01*
X152816989Y-106500945D01*
X152856134Y-106504800D01*
X152856141Y-106504800D01*
X152870294Y-106506194D01*
X152870294Y-107100000D01*
X152874708Y-107144813D01*
X152887779Y-107187905D01*
X152909006Y-107227618D01*
X152937573Y-107262427D01*
X152972382Y-107290994D01*
X153012095Y-107312221D01*
X153055187Y-107325292D01*
X153100000Y-107329706D01*
X154900000Y-107329706D01*
X154944813Y-107325292D01*
X154987905Y-107312221D01*
X155027618Y-107290994D01*
X155062427Y-107262427D01*
X155090994Y-107227618D01*
X155112221Y-107187905D01*
X155125292Y-107144813D01*
X155129706Y-107100000D01*
X155129706Y-105300000D01*
X155125292Y-105255187D01*
X155112221Y-105212095D01*
X155102091Y-105193142D01*
X155553669Y-105644721D01*
X155539847Y-105665407D01*
X155454771Y-105870799D01*
X155411400Y-106088843D01*
X155411400Y-106311157D01*
X155454771Y-106529201D01*
X155539847Y-106734593D01*
X155663359Y-106919441D01*
X155820559Y-107076641D01*
X156005407Y-107200153D01*
X156210799Y-107285229D01*
X156428843Y-107328600D01*
X156651157Y-107328600D01*
X156869201Y-107285229D01*
X157074593Y-107200153D01*
X157259441Y-107076641D01*
X157416641Y-106919441D01*
X157540153Y-106734593D01*
X157625229Y-106529201D01*
X157668600Y-106311157D01*
X157668600Y-106088843D01*
X157625229Y-105870799D01*
X157540153Y-105665407D01*
X157416641Y-105480559D01*
X157259441Y-105323359D01*
X157074593Y-105199847D01*
X156869201Y-105114771D01*
X156651157Y-105071400D01*
X156428843Y-105071400D01*
X156210799Y-105114771D01*
X156005407Y-105199847D01*
X155984721Y-105213669D01*
X153164086Y-102393034D01*
X160388612Y-102393034D01*
X160463052Y-102583616D01*
X160678506Y-102683925D01*
X160909389Y-102740272D01*
X161146829Y-102750494D01*
X161381700Y-102714198D01*
X161604978Y-102632777D01*
X161696952Y-102583616D01*
X161771392Y-102393034D01*
X161080002Y-101701644D01*
X160388612Y-102393034D01*
X153164086Y-102393034D01*
X152464800Y-101693749D01*
X152464800Y-101606826D01*
X159869507Y-101606826D01*
X159905803Y-101841697D01*
X159987224Y-102064975D01*
X160036385Y-102156949D01*
X160226967Y-102231389D01*
X160918357Y-101539999D01*
X161241647Y-101539999D01*
X161933037Y-102231389D01*
X162123619Y-102156949D01*
X162223928Y-101941495D01*
X162280275Y-101710612D01*
X162290497Y-101473172D01*
X162254201Y-101238301D01*
X162172780Y-101015023D01*
X162123619Y-100923049D01*
X161933037Y-100848609D01*
X161241647Y-101539999D01*
X160918357Y-101539999D01*
X160226967Y-100848609D01*
X160036385Y-100923049D01*
X159936076Y-101138503D01*
X159879729Y-101369386D01*
X159869507Y-101606826D01*
X152464800Y-101606826D01*
X152464800Y-100686964D01*
X160388612Y-100686964D01*
X161080002Y-101378354D01*
X161771392Y-100686964D01*
X161696952Y-100496382D01*
X161481498Y-100396073D01*
X161250615Y-100339726D01*
X161013175Y-100329504D01*
X160778304Y-100365800D01*
X160555026Y-100447221D01*
X160463052Y-100496382D01*
X160388612Y-100686964D01*
X152464800Y-100686964D01*
X152464800Y-100058683D01*
X162942101Y-100058683D01*
X162942101Y-100251313D01*
X162979681Y-100440241D01*
X163053397Y-100618208D01*
X163160416Y-100778373D01*
X163296626Y-100914583D01*
X163456791Y-101021602D01*
X163634758Y-101095318D01*
X163823686Y-101132898D01*
X164016316Y-101132898D01*
X164205244Y-101095318D01*
X164383211Y-101021602D01*
X164543376Y-100914583D01*
X164679586Y-100778373D01*
X164786605Y-100618208D01*
X164860321Y-100440241D01*
X164897901Y-100251313D01*
X164897901Y-100058683D01*
X164860321Y-99869755D01*
X164786605Y-99691788D01*
X164679586Y-99531623D01*
X164543376Y-99395413D01*
X164383211Y-99288394D01*
X164205244Y-99214678D01*
X164016316Y-99177098D01*
X163823686Y-99177098D01*
X163634758Y-99214678D01*
X163456791Y-99288394D01*
X163296626Y-99395413D01*
X163160416Y-99531623D01*
X163053397Y-99691788D01*
X162979681Y-99869755D01*
X162942101Y-100058683D01*
X152464800Y-100058683D01*
X152464800Y-98673685D01*
X160102102Y-98673685D01*
X160102102Y-98866315D01*
X160139682Y-99055243D01*
X160213398Y-99233210D01*
X160320417Y-99393375D01*
X160456627Y-99529585D01*
X160616792Y-99636604D01*
X160794759Y-99710320D01*
X160983687Y-99747900D01*
X161176317Y-99747900D01*
X161365245Y-99710320D01*
X161543212Y-99636604D01*
X161703377Y-99529585D01*
X161839587Y-99393375D01*
X161946606Y-99233210D01*
X162020322Y-99055243D01*
X162057902Y-98866315D01*
X162057902Y-98673685D01*
X162020322Y-98484757D01*
X161946606Y-98306790D01*
X161839587Y-98146625D01*
X161703377Y-98010415D01*
X161543212Y-97903396D01*
X161365245Y-97829680D01*
X161176317Y-97792100D01*
X160983687Y-97792100D01*
X160794759Y-97829680D01*
X160616792Y-97903396D01*
X160456627Y-98010415D01*
X160320417Y-98146625D01*
X160213398Y-98306790D01*
X160139682Y-98484757D01*
X160102102Y-98673685D01*
X152464800Y-98673685D01*
X152464800Y-97288683D01*
X162942101Y-97288683D01*
X162942101Y-97481313D01*
X162979681Y-97670241D01*
X163053397Y-97848208D01*
X163160416Y-98008373D01*
X163296626Y-98144583D01*
X163456791Y-98251602D01*
X163634758Y-98325318D01*
X163823686Y-98362898D01*
X164016316Y-98362898D01*
X164205244Y-98325318D01*
X164383211Y-98251602D01*
X164543376Y-98144583D01*
X164679586Y-98008373D01*
X164786605Y-97848208D01*
X164860321Y-97670241D01*
X164897901Y-97481313D01*
X164897901Y-97288683D01*
X164860321Y-97099755D01*
X164786605Y-96921788D01*
X164679586Y-96761623D01*
X164543376Y-96625413D01*
X164383211Y-96518394D01*
X164205244Y-96444678D01*
X164016316Y-96407098D01*
X163823686Y-96407098D01*
X163634758Y-96444678D01*
X163456791Y-96518394D01*
X163296626Y-96625413D01*
X163160416Y-96761623D01*
X163053397Y-96921788D01*
X162979681Y-97099755D01*
X162942101Y-97288683D01*
X152464800Y-97288683D01*
X152464800Y-95903685D01*
X160102102Y-95903685D01*
X160102102Y-96096315D01*
X160139682Y-96285243D01*
X160213398Y-96463210D01*
X160320417Y-96623375D01*
X160456627Y-96759585D01*
X160616792Y-96866604D01*
X160794759Y-96940320D01*
X160983687Y-96977900D01*
X161176317Y-96977900D01*
X161365245Y-96940320D01*
X161543212Y-96866604D01*
X161703377Y-96759585D01*
X161839587Y-96623375D01*
X161946606Y-96463210D01*
X162020322Y-96285243D01*
X162057902Y-96096315D01*
X162057902Y-95903685D01*
X162020322Y-95714757D01*
X161946606Y-95536790D01*
X161839587Y-95376625D01*
X161703377Y-95240415D01*
X161543212Y-95133396D01*
X161365245Y-95059680D01*
X161176317Y-95022100D01*
X160983687Y-95022100D01*
X160794759Y-95059680D01*
X160616792Y-95133396D01*
X160456627Y-95240415D01*
X160320417Y-95376625D01*
X160213398Y-95536790D01*
X160139682Y-95714757D01*
X160102102Y-95903685D01*
X152464800Y-95903685D01*
X152464800Y-94518684D01*
X162942101Y-94518684D01*
X162942101Y-94711314D01*
X162979681Y-94900242D01*
X163053397Y-95078209D01*
X163160416Y-95238374D01*
X163296626Y-95374584D01*
X163456791Y-95481603D01*
X163634758Y-95555319D01*
X163823686Y-95592899D01*
X164016316Y-95592899D01*
X164205244Y-95555319D01*
X164383211Y-95481603D01*
X164543376Y-95374584D01*
X164679586Y-95238374D01*
X164786605Y-95078209D01*
X164860321Y-94900242D01*
X164897901Y-94711314D01*
X164897901Y-94518684D01*
X164860321Y-94329756D01*
X164786605Y-94151789D01*
X164679586Y-93991624D01*
X164543376Y-93855414D01*
X164383211Y-93748395D01*
X164205244Y-93674679D01*
X164016316Y-93637099D01*
X163823686Y-93637099D01*
X163634758Y-93674679D01*
X163456791Y-93748395D01*
X163296626Y-93855414D01*
X163160416Y-93991624D01*
X163053397Y-94151789D01*
X162979681Y-94329756D01*
X162942101Y-94518684D01*
X152464800Y-94518684D01*
X152464800Y-93133685D01*
X160102102Y-93133685D01*
X160102102Y-93326315D01*
X160139682Y-93515243D01*
X160213398Y-93693210D01*
X160320417Y-93853375D01*
X160456627Y-93989585D01*
X160616792Y-94096604D01*
X160794759Y-94170320D01*
X160983687Y-94207900D01*
X161176317Y-94207900D01*
X161365245Y-94170320D01*
X161543212Y-94096604D01*
X161703377Y-93989585D01*
X161839587Y-93853375D01*
X161946606Y-93693210D01*
X162020322Y-93515243D01*
X162057902Y-93326315D01*
X162057902Y-93133685D01*
X162020322Y-92944757D01*
X161946606Y-92766790D01*
X161839587Y-92606625D01*
X161703377Y-92470415D01*
X161543212Y-92363396D01*
X161365245Y-92289680D01*
X161176317Y-92252100D01*
X160983687Y-92252100D01*
X160794759Y-92289680D01*
X160616792Y-92363396D01*
X160456627Y-92470415D01*
X160320417Y-92606625D01*
X160213398Y-92766790D01*
X160139682Y-92944757D01*
X160102102Y-93133685D01*
X152464800Y-93133685D01*
X152464800Y-91748684D01*
X162942101Y-91748684D01*
X162942101Y-91941314D01*
X162979681Y-92130242D01*
X163053397Y-92308209D01*
X163160416Y-92468374D01*
X163296626Y-92604584D01*
X163456791Y-92711603D01*
X163634758Y-92785319D01*
X163823686Y-92822899D01*
X164016316Y-92822899D01*
X164205244Y-92785319D01*
X164383211Y-92711603D01*
X164543376Y-92604584D01*
X164679586Y-92468374D01*
X164786605Y-92308209D01*
X164860321Y-92130242D01*
X164897901Y-91941314D01*
X164897901Y-91748684D01*
X164860321Y-91559756D01*
X164786605Y-91381789D01*
X164679586Y-91221624D01*
X164543376Y-91085414D01*
X164383211Y-90978395D01*
X164205244Y-90904679D01*
X164016316Y-90867099D01*
X163823686Y-90867099D01*
X163634758Y-90904679D01*
X163456791Y-90978395D01*
X163296626Y-91085414D01*
X163160416Y-91221624D01*
X163053397Y-91381789D01*
X162979681Y-91559756D01*
X162942101Y-91748684D01*
X152464800Y-91748684D01*
X152464800Y-90363686D01*
X160102102Y-90363686D01*
X160102102Y-90556316D01*
X160139682Y-90745244D01*
X160213398Y-90923211D01*
X160320417Y-91083376D01*
X160456627Y-91219586D01*
X160616792Y-91326605D01*
X160794759Y-91400321D01*
X160983687Y-91437901D01*
X161176317Y-91437901D01*
X161365245Y-91400321D01*
X161543212Y-91326605D01*
X161703377Y-91219586D01*
X161839587Y-91083376D01*
X161946606Y-90923211D01*
X162020322Y-90745244D01*
X162057902Y-90556316D01*
X162057902Y-90363686D01*
X162020322Y-90174758D01*
X161946606Y-89996791D01*
X161839587Y-89836626D01*
X161703377Y-89700416D01*
X161543212Y-89593397D01*
X161365245Y-89519681D01*
X161176317Y-89482101D01*
X160983687Y-89482101D01*
X160794759Y-89519681D01*
X160616792Y-89593397D01*
X160456627Y-89700416D01*
X160320417Y-89836626D01*
X160213398Y-89996791D01*
X160139682Y-90174758D01*
X160102102Y-90363686D01*
X152464800Y-90363686D01*
X152464800Y-87239103D01*
X152474616Y-87237150D01*
X152670909Y-87155843D01*
X152847567Y-87037803D01*
X152997803Y-86887567D01*
X153115843Y-86710909D01*
X153197150Y-86514616D01*
X153238600Y-86306233D01*
X153238600Y-86093767D01*
X153197150Y-85885384D01*
X153115843Y-85689091D01*
X152997803Y-85512433D01*
X152847567Y-85362197D01*
X152670909Y-85244157D01*
X152474616Y-85162850D01*
X152266233Y-85121400D01*
X152053767Y-85121400D01*
X151845384Y-85162850D01*
X151649091Y-85244157D01*
X151472433Y-85362197D01*
X151322197Y-85512433D01*
X151204157Y-85689091D01*
X151122850Y-85885384D01*
X151081400Y-86093767D01*
X151081400Y-86306233D01*
X151122850Y-86514616D01*
X151204157Y-86710909D01*
X151322197Y-86887567D01*
X151472433Y-87037803D01*
X151649091Y-87155843D01*
X151845384Y-87237150D01*
X151855200Y-87239103D01*
X151855201Y-101805032D01*
X151853727Y-101820000D01*
X151859611Y-101879751D01*
X151877040Y-101937205D01*
X151877041Y-101937206D01*
X151905343Y-101990157D01*
X151943433Y-102036568D01*
X151955057Y-102046108D01*
X155006858Y-105097909D01*
X154987905Y-105087779D01*
X154944813Y-105074708D01*
X154900000Y-105070294D01*
X153100000Y-105070294D01*
X153055187Y-105074708D01*
X153012095Y-105087779D01*
X152972382Y-105109006D01*
X152937573Y-105137573D01*
X152909006Y-105172382D01*
X152887779Y-105212095D01*
X152874708Y-105255187D01*
X152870294Y-105300000D01*
X152870294Y-105768142D01*
X145477212Y-98375061D01*
X145467668Y-98363432D01*
X145421257Y-98325342D01*
X145368306Y-98297040D01*
X145310851Y-98279611D01*
X145266066Y-98275200D01*
X145266058Y-98275200D01*
X145251100Y-98273727D01*
X145236142Y-98275200D01*
X141514965Y-98275200D01*
X141500000Y-98273726D01*
X141485034Y-98275200D01*
X141440249Y-98279611D01*
X141382794Y-98297040D01*
X141329843Y-98325342D01*
X141283432Y-98363432D01*
X141245342Y-98409843D01*
X141217040Y-98462794D01*
X141199611Y-98520249D01*
X141193726Y-98580000D01*
X141195200Y-98594966D01*
X141195200Y-98641143D01*
X141060143Y-98697085D01*
X140908052Y-98798709D01*
X140778709Y-98928052D01*
X140677085Y-99080143D01*
X140607086Y-99249137D01*
X140571400Y-99428541D01*
X139828600Y-99428541D01*
X139792914Y-99249137D01*
X139722915Y-99080143D01*
X139621291Y-98928052D01*
X139491948Y-98798709D01*
X139339857Y-98697085D01*
X139170863Y-98627086D01*
X138991459Y-98591400D01*
X138808541Y-98591400D01*
X138629137Y-98627086D01*
X138460143Y-98697085D01*
X138308052Y-98798709D01*
X138178709Y-98928052D01*
X138077085Y-99080143D01*
X138007086Y-99249137D01*
X137971400Y-99428541D01*
X137721800Y-99428541D01*
X137721800Y-98966551D01*
X140764936Y-95923416D01*
X140808306Y-95910260D01*
X140861257Y-95881958D01*
X140907668Y-95843868D01*
X140917212Y-95832239D01*
X148554945Y-88194507D01*
X148566568Y-88184968D01*
X148604658Y-88138557D01*
X148632960Y-88085606D01*
X148650389Y-88028151D01*
X148654800Y-87983366D01*
X148654800Y-87983359D01*
X148656273Y-87968401D01*
X148654800Y-87953443D01*
X148654800Y-86688319D01*
X148664157Y-86710909D01*
X148782197Y-86887567D01*
X148932433Y-87037803D01*
X149109091Y-87155843D01*
X149305384Y-87237150D01*
X149513767Y-87278600D01*
X149726233Y-87278600D01*
X149934616Y-87237150D01*
X150130909Y-87155843D01*
X150307567Y-87037803D01*
X150457803Y-86887567D01*
X150575843Y-86710909D01*
X150657150Y-86514616D01*
X150698600Y-86306233D01*
X150698600Y-86093767D01*
X150657150Y-85885384D01*
X150575843Y-85689091D01*
X150457803Y-85512433D01*
X150307567Y-85362197D01*
X150130909Y-85244157D01*
X149934616Y-85162850D01*
X149726233Y-85121400D01*
X149513767Y-85121400D01*
X149305384Y-85162850D01*
X149109091Y-85244157D01*
X148932433Y-85362197D01*
X148782197Y-85512433D01*
X148664157Y-85689091D01*
X148654800Y-85711681D01*
X148654800Y-85056251D01*
X149100769Y-84610282D01*
X149109091Y-84615843D01*
X149305384Y-84697150D01*
X149513767Y-84738600D01*
X149726233Y-84738600D01*
X149934616Y-84697150D01*
X150130909Y-84615843D01*
X150307567Y-84497803D01*
X150457803Y-84347567D01*
X150575843Y-84170909D01*
X150657150Y-83974616D01*
X150698600Y-83766233D01*
X150698600Y-83553767D01*
X151081400Y-83553767D01*
X151081400Y-83766233D01*
X151122850Y-83974616D01*
X151204157Y-84170909D01*
X151322197Y-84347567D01*
X151472433Y-84497803D01*
X151649091Y-84615843D01*
X151845384Y-84697150D01*
X152053767Y-84738600D01*
X152266233Y-84738600D01*
X152474616Y-84697150D01*
X152670909Y-84615843D01*
X152847567Y-84497803D01*
X152997803Y-84347567D01*
X153115843Y-84170909D01*
X153197150Y-83974616D01*
X153238600Y-83766233D01*
X153238600Y-83553767D01*
X153197150Y-83345384D01*
X153191766Y-83332384D01*
X160747402Y-83332384D01*
X160747402Y-83677616D01*
X160814754Y-84016215D01*
X160946868Y-84335167D01*
X161138669Y-84622217D01*
X161382785Y-84866333D01*
X161669835Y-85058134D01*
X161988787Y-85190248D01*
X162327386Y-85257600D01*
X162672618Y-85257600D01*
X163011217Y-85190248D01*
X163330169Y-85058134D01*
X163617219Y-84866333D01*
X163861335Y-84622217D01*
X164053136Y-84335167D01*
X164185250Y-84016215D01*
X164252602Y-83677616D01*
X164252602Y-83332384D01*
X164185250Y-82993785D01*
X164053136Y-82674833D01*
X163861335Y-82387783D01*
X163617219Y-82143667D01*
X163330169Y-81951866D01*
X163011217Y-81819752D01*
X162672618Y-81752400D01*
X162327386Y-81752400D01*
X161988787Y-81819752D01*
X161669835Y-81951866D01*
X161382785Y-82143667D01*
X161138669Y-82387783D01*
X160946868Y-82674833D01*
X160814754Y-82993785D01*
X160747402Y-83332384D01*
X153191766Y-83332384D01*
X153115843Y-83149091D01*
X152997803Y-82972433D01*
X152847567Y-82822197D01*
X152670909Y-82704157D01*
X152474616Y-82622850D01*
X152266233Y-82581400D01*
X152053767Y-82581400D01*
X151845384Y-82622850D01*
X151649091Y-82704157D01*
X151472433Y-82822197D01*
X151322197Y-82972433D01*
X151204157Y-83149091D01*
X151122850Y-83345384D01*
X151081400Y-83553767D01*
X150698600Y-83553767D01*
X150657150Y-83345384D01*
X150575843Y-83149091D01*
X150457803Y-82972433D01*
X150307567Y-82822197D01*
X150130909Y-82704157D01*
X149934616Y-82622850D01*
X149726233Y-82581400D01*
X149513767Y-82581400D01*
X149305384Y-82622850D01*
X149109091Y-82704157D01*
X148932433Y-82822197D01*
X148782197Y-82972433D01*
X148664157Y-83149091D01*
X148582850Y-83345384D01*
X148541400Y-83553767D01*
X148541400Y-83766233D01*
X148582850Y-83974616D01*
X148664157Y-84170909D01*
X148669718Y-84179231D01*
X148145057Y-84703892D01*
X148133433Y-84713432D01*
X148095343Y-84759843D01*
X148087223Y-84775035D01*
X148067040Y-84812795D01*
X148049611Y-84870249D01*
X148043727Y-84930000D01*
X148045201Y-84944968D01*
X148045201Y-85711683D01*
X148035843Y-85689091D01*
X147917803Y-85512433D01*
X147767567Y-85362197D01*
X147590909Y-85244157D01*
X147394616Y-85162850D01*
X147186233Y-85121400D01*
X146973767Y-85121400D01*
X146765384Y-85162850D01*
X146569091Y-85244157D01*
X146392433Y-85362197D01*
X146242197Y-85512433D01*
X146124157Y-85689091D01*
X146114800Y-85711681D01*
X146114800Y-85056251D01*
X146560769Y-84610282D01*
X146569091Y-84615843D01*
X146765384Y-84697150D01*
X146973767Y-84738600D01*
X147186233Y-84738600D01*
X147394616Y-84697150D01*
X147590909Y-84615843D01*
X147767567Y-84497803D01*
X147917803Y-84347567D01*
X148035843Y-84170909D01*
X148117150Y-83974616D01*
X148158600Y-83766233D01*
X148158600Y-83553767D01*
X148117150Y-83345384D01*
X148035843Y-83149091D01*
X147917803Y-82972433D01*
X147767567Y-82822197D01*
X147590909Y-82704157D01*
X147394616Y-82622850D01*
X147186233Y-82581400D01*
X146973767Y-82581400D01*
X146765384Y-82622850D01*
X146569091Y-82704157D01*
X146392433Y-82822197D01*
X146242197Y-82972433D01*
X146124157Y-83149091D01*
X146042850Y-83345384D01*
X146001400Y-83553767D01*
X146001400Y-83766233D01*
X146042850Y-83974616D01*
X146124157Y-84170909D01*
X146129718Y-84179231D01*
X145605061Y-84703888D01*
X145593432Y-84713432D01*
X145555342Y-84759844D01*
X145527040Y-84812795D01*
X145509611Y-84870250D01*
X145505200Y-84915035D01*
X145505200Y-84915042D01*
X145503727Y-84930000D01*
X145505200Y-84944958D01*
X145505200Y-85711681D01*
X145495843Y-85689091D01*
X145377803Y-85512433D01*
X145227567Y-85362197D01*
X145050909Y-85244157D01*
X144854616Y-85162850D01*
X144646233Y-85121400D01*
X144433767Y-85121400D01*
X144225384Y-85162850D01*
X144029091Y-85244157D01*
X143852433Y-85362197D01*
X143702197Y-85512433D01*
X143584157Y-85689091D01*
X143502850Y-85885384D01*
X143461400Y-86093767D01*
X143461400Y-86306233D01*
X143502850Y-86514616D01*
X143584157Y-86710909D01*
X143702197Y-86887567D01*
X143852433Y-87037803D01*
X144029091Y-87155843D01*
X144225384Y-87237150D01*
X144433767Y-87278600D01*
X144646233Y-87278600D01*
X144854616Y-87237150D01*
X145050909Y-87155843D01*
X145227567Y-87037803D01*
X145377803Y-86887567D01*
X145495843Y-86710909D01*
X145505200Y-86688319D01*
X145505201Y-89063747D01*
X144632639Y-89936310D01*
X142273848Y-89936310D01*
X142258890Y-89934837D01*
X142243932Y-89936310D01*
X142243924Y-89936310D01*
X142199139Y-89940721D01*
X142141684Y-89958150D01*
X142088733Y-89986452D01*
X142071845Y-90000312D01*
X142053946Y-90015001D01*
X142053940Y-90015007D01*
X142042322Y-90024542D01*
X142032787Y-90036160D01*
X141295056Y-90773893D01*
X141283433Y-90783432D01*
X141245343Y-90829843D01*
X141230215Y-90858146D01*
X141217040Y-90882795D01*
X141199611Y-90940249D01*
X141193727Y-91000000D01*
X141195201Y-91014968D01*
X141195201Y-91021143D01*
X141060143Y-91077085D01*
X140908052Y-91178709D01*
X140778709Y-91308052D01*
X140677085Y-91460143D01*
X140607086Y-91629137D01*
X140571400Y-91808541D01*
X140571400Y-91991459D01*
X140607086Y-92170863D01*
X140677085Y-92339857D01*
X140778709Y-92491948D01*
X140908052Y-92621291D01*
X141060143Y-92722915D01*
X141229137Y-92792914D01*
X141408541Y-92828600D01*
X141591459Y-92828600D01*
X141770863Y-92792914D01*
X141939857Y-92722915D01*
X142091948Y-92621291D01*
X142221291Y-92491948D01*
X142322915Y-92339857D01*
X142392914Y-92170863D01*
X142428600Y-91991459D01*
X142428600Y-91808541D01*
X142392914Y-91629137D01*
X142322915Y-91460143D01*
X142221291Y-91308052D01*
X142091948Y-91178709D01*
X141939857Y-91077085D01*
X141879123Y-91051928D01*
X142385143Y-90545910D01*
X144743932Y-90545910D01*
X144758890Y-90547383D01*
X144773848Y-90545910D01*
X144773856Y-90545910D01*
X144818641Y-90541499D01*
X144876096Y-90524070D01*
X144929047Y-90495768D01*
X144975458Y-90457678D01*
X144985002Y-90446049D01*
X146014944Y-89416108D01*
X146026568Y-89406568D01*
X146064658Y-89360157D01*
X146092960Y-89307206D01*
X146110389Y-89249751D01*
X146114800Y-89204966D01*
X146114800Y-89204959D01*
X146116273Y-89190001D01*
X146114800Y-89175043D01*
X146114800Y-86688319D01*
X146124157Y-86710909D01*
X146242197Y-86887567D01*
X146392433Y-87037803D01*
X146569091Y-87155843D01*
X146765384Y-87237150D01*
X146973767Y-87278600D01*
X147186233Y-87278600D01*
X147394616Y-87237150D01*
X147590909Y-87155843D01*
X147767567Y-87037803D01*
X147917803Y-86887567D01*
X148035843Y-86710909D01*
X148045200Y-86688319D01*
X148045200Y-87842148D01*
X140556166Y-95331183D01*
X140512794Y-95344340D01*
X140459843Y-95372642D01*
X140413432Y-95410732D01*
X140403892Y-95422356D01*
X137212057Y-98614192D01*
X137200433Y-98623732D01*
X137162343Y-98670143D01*
X137160450Y-98673685D01*
X137134040Y-98723095D01*
X137116611Y-98780549D01*
X137110727Y-98840300D01*
X137112201Y-98855268D01*
X137112200Y-100281048D01*
X134565649Y-102827600D01*
X133262078Y-102827600D01*
X133263094Y-102825147D01*
X133279200Y-102744178D01*
X133279200Y-102661622D01*
X133263094Y-102580653D01*
X133231502Y-102504382D01*
X133185636Y-102435739D01*
X133164900Y-102415003D01*
X133164900Y-92039057D01*
X133166373Y-92024099D01*
X133164900Y-92009141D01*
X133164900Y-92009134D01*
X133160489Y-91964349D01*
X133143060Y-91906894D01*
X133114758Y-91853943D01*
X133076668Y-91807532D01*
X133065045Y-91797993D01*
X132112815Y-90845764D01*
X132160909Y-90825843D01*
X132337567Y-90707803D01*
X132487803Y-90557567D01*
X132605843Y-90380909D01*
X132687150Y-90184616D01*
X132728600Y-89976233D01*
X132728600Y-89763767D01*
X132687150Y-89555384D01*
X132605843Y-89359091D01*
X132487803Y-89182433D01*
X132337567Y-89032197D01*
X132160909Y-88914157D01*
X131964616Y-88832850D01*
X131756233Y-88791400D01*
X131543767Y-88791400D01*
X131335384Y-88832850D01*
X131139091Y-88914157D01*
X130962433Y-89032197D01*
X130812197Y-89182433D01*
X130694157Y-89359091D01*
X130612850Y-89555384D01*
X130571400Y-89763767D01*
X129853600Y-89763767D01*
X129853600Y-84683767D01*
X130571400Y-84683767D01*
X130571400Y-84896233D01*
X130612850Y-85104616D01*
X130694157Y-85300909D01*
X130812197Y-85477567D01*
X130962433Y-85627803D01*
X131139091Y-85745843D01*
X131335384Y-85827150D01*
X131345201Y-85829103D01*
X131345201Y-85853924D01*
X131343726Y-85868900D01*
X131349611Y-85928651D01*
X131367040Y-85986106D01*
X131395342Y-86039057D01*
X131433432Y-86085468D01*
X131479843Y-86123558D01*
X131532794Y-86151860D01*
X131590249Y-86169289D01*
X131635034Y-86173700D01*
X131635035Y-86173700D01*
X131650000Y-86175174D01*
X131659215Y-86174266D01*
X131736349Y-86251400D01*
X131543767Y-86251400D01*
X131335384Y-86292850D01*
X131139091Y-86374157D01*
X130962433Y-86492197D01*
X130812197Y-86642433D01*
X130694157Y-86819091D01*
X130612850Y-87015384D01*
X130571400Y-87223767D01*
X130571400Y-87436233D01*
X130612850Y-87644616D01*
X130694157Y-87840909D01*
X130812197Y-88017567D01*
X130962433Y-88167803D01*
X131139091Y-88285843D01*
X131335384Y-88367150D01*
X131543767Y-88408600D01*
X131756233Y-88408600D01*
X131964616Y-88367150D01*
X132160909Y-88285843D01*
X132337567Y-88167803D01*
X132487803Y-88017567D01*
X132605843Y-87840909D01*
X132687150Y-87644616D01*
X132728600Y-87436233D01*
X132728600Y-87243651D01*
X134521300Y-89036352D01*
X134521301Y-100786002D01*
X134500564Y-100806739D01*
X134454698Y-100875382D01*
X134423106Y-100951653D01*
X134407000Y-101032622D01*
X134407000Y-101115178D01*
X134423106Y-101196147D01*
X134454698Y-101272418D01*
X134500564Y-101341061D01*
X134558939Y-101399436D01*
X134627582Y-101445302D01*
X134703853Y-101476894D01*
X134784822Y-101493000D01*
X134867378Y-101493000D01*
X134948347Y-101476894D01*
X135024618Y-101445302D01*
X135093261Y-101399436D01*
X135151636Y-101341061D01*
X135197502Y-101272418D01*
X135229094Y-101196147D01*
X135245200Y-101115178D01*
X135245200Y-101032622D01*
X135229094Y-100951653D01*
X135197502Y-100875382D01*
X135151636Y-100806739D01*
X135130900Y-100786003D01*
X135130900Y-100445547D01*
X135162095Y-100462221D01*
X135205187Y-100475292D01*
X135250000Y-100479706D01*
X136750000Y-100479706D01*
X136794813Y-100475292D01*
X136837905Y-100462221D01*
X136877618Y-100440994D01*
X136912427Y-100412427D01*
X136940994Y-100377618D01*
X136962221Y-100337905D01*
X136975292Y-100294813D01*
X136979706Y-100250000D01*
X136979706Y-98750000D01*
X136975292Y-98705187D01*
X136962221Y-98662095D01*
X136940994Y-98622382D01*
X136912427Y-98587573D01*
X136877618Y-98559006D01*
X136837905Y-98537779D01*
X136794813Y-98524708D01*
X136750000Y-98520294D01*
X135250000Y-98520294D01*
X135205187Y-98524708D01*
X135162095Y-98537779D01*
X135130900Y-98554453D01*
X135130900Y-92339012D01*
X135132776Y-92343541D01*
X135239872Y-92503821D01*
X135376179Y-92640128D01*
X135536459Y-92747224D01*
X135714553Y-92820993D01*
X135903616Y-92858600D01*
X136096384Y-92858600D01*
X136285447Y-92820993D01*
X136463541Y-92747224D01*
X136623821Y-92640128D01*
X136760128Y-92503821D01*
X136867224Y-92343541D01*
X136940993Y-92165447D01*
X136978600Y-91976384D01*
X136978600Y-91808541D01*
X137971400Y-91808541D01*
X137971400Y-91991459D01*
X138007086Y-92170863D01*
X138077085Y-92339857D01*
X138178709Y-92491948D01*
X138308052Y-92621291D01*
X138460143Y-92722915D01*
X138629137Y-92792914D01*
X138808541Y-92828600D01*
X138991459Y-92828600D01*
X139170863Y-92792914D01*
X139339857Y-92722915D01*
X139491948Y-92621291D01*
X139621291Y-92491948D01*
X139722915Y-92339857D01*
X139792914Y-92170863D01*
X139828600Y-91991459D01*
X139828600Y-91808541D01*
X139792914Y-91629137D01*
X139736972Y-91494079D01*
X142204945Y-89026107D01*
X142216568Y-89016568D01*
X142254658Y-88970157D01*
X142282960Y-88917206D01*
X142300389Y-88859751D01*
X142304800Y-88814966D01*
X142304800Y-88814959D01*
X142306273Y-88800001D01*
X142304800Y-88785043D01*
X142304800Y-87279706D01*
X142600000Y-87279706D01*
X142693586Y-87270489D01*
X142783576Y-87243191D01*
X142866510Y-87198861D01*
X142939203Y-87139203D01*
X142998861Y-87066510D01*
X143043191Y-86983576D01*
X143070489Y-86893586D01*
X143079706Y-86800000D01*
X143079706Y-85600000D01*
X143070489Y-85506414D01*
X143043191Y-85416424D01*
X142998861Y-85333490D01*
X142939203Y-85260797D01*
X142866510Y-85201139D01*
X142783576Y-85156809D01*
X142693586Y-85129511D01*
X142600000Y-85120294D01*
X141400000Y-85120294D01*
X141306414Y-85129511D01*
X141216424Y-85156809D01*
X141133490Y-85201139D01*
X141060797Y-85260797D01*
X141001139Y-85333490D01*
X140956809Y-85416424D01*
X140929511Y-85506414D01*
X140920294Y-85600000D01*
X140920294Y-86800000D01*
X140929511Y-86893586D01*
X140956809Y-86983576D01*
X141001139Y-87066510D01*
X141060797Y-87139203D01*
X141133490Y-87198861D01*
X141216424Y-87243191D01*
X141306414Y-87270489D01*
X141400000Y-87279706D01*
X141695201Y-87279706D01*
X141695200Y-88673748D01*
X139305921Y-91063028D01*
X139170863Y-91007086D01*
X138991459Y-90971400D01*
X138808541Y-90971400D01*
X138629137Y-91007086D01*
X138460143Y-91077085D01*
X138308052Y-91178709D01*
X138178709Y-91308052D01*
X138077085Y-91460143D01*
X138007086Y-91629137D01*
X137971400Y-91808541D01*
X136978600Y-91808541D01*
X136978600Y-91783616D01*
X136940993Y-91594553D01*
X136867224Y-91416459D01*
X136760128Y-91256179D01*
X136623821Y-91119872D01*
X136463541Y-91012776D01*
X136285447Y-90939007D01*
X136096384Y-90901400D01*
X135903616Y-90901400D01*
X135714553Y-90939007D01*
X135536459Y-91012776D01*
X135376179Y-91119872D01*
X135239872Y-91256179D01*
X135132776Y-91416459D01*
X135130900Y-91420988D01*
X135130900Y-88925057D01*
X135132373Y-88910099D01*
X135130900Y-88895141D01*
X135130900Y-88895134D01*
X135126489Y-88850349D01*
X135109060Y-88792894D01*
X135080758Y-88739943D01*
X135042668Y-88693532D01*
X135031045Y-88683993D01*
X132112815Y-85765764D01*
X132160909Y-85745843D01*
X132337567Y-85627803D01*
X132487803Y-85477567D01*
X132605843Y-85300909D01*
X132687150Y-85104616D01*
X132728600Y-84896233D01*
X132728600Y-84683767D01*
X132687150Y-84475384D01*
X132605843Y-84279091D01*
X132487803Y-84102433D01*
X132337567Y-83952197D01*
X132160909Y-83834157D01*
X131964616Y-83752850D01*
X131756233Y-83711400D01*
X131543767Y-83711400D01*
X131335384Y-83752850D01*
X131139091Y-83834157D01*
X130962433Y-83952197D01*
X130812197Y-84102433D01*
X130694157Y-84279091D01*
X130612850Y-84475384D01*
X130571400Y-84683767D01*
X129853600Y-84683767D01*
X129853600Y-83553767D01*
X140921400Y-83553767D01*
X140921400Y-83766233D01*
X140962850Y-83974616D01*
X141044157Y-84170909D01*
X141162197Y-84347567D01*
X141312433Y-84497803D01*
X141489091Y-84615843D01*
X141685384Y-84697150D01*
X141893767Y-84738600D01*
X142106233Y-84738600D01*
X142314616Y-84697150D01*
X142510909Y-84615843D01*
X142557155Y-84584942D01*
X143776702Y-84584942D01*
X143863329Y-84785817D01*
X144095967Y-84896196D01*
X144345669Y-84959069D01*
X144602839Y-84972020D01*
X144857594Y-84934550D01*
X145100145Y-84848101D01*
X145216671Y-84785817D01*
X145303298Y-84584942D01*
X144540000Y-83821645D01*
X143776702Y-84584942D01*
X142557155Y-84584942D01*
X142687567Y-84497803D01*
X142837803Y-84347567D01*
X142955843Y-84170909D01*
X143037150Y-83974616D01*
X143078600Y-83766233D01*
X143078600Y-83722839D01*
X143227980Y-83722839D01*
X143265450Y-83977594D01*
X143351899Y-84220145D01*
X143414183Y-84336671D01*
X143615058Y-84423298D01*
X144378355Y-83660000D01*
X144701645Y-83660000D01*
X145464942Y-84423298D01*
X145665817Y-84336671D01*
X145776196Y-84104033D01*
X145839069Y-83854331D01*
X145852020Y-83597161D01*
X145814550Y-83342406D01*
X145728101Y-83099855D01*
X145665817Y-82983329D01*
X145464942Y-82896702D01*
X144701645Y-83660000D01*
X144378355Y-83660000D01*
X143615058Y-82896702D01*
X143414183Y-82983329D01*
X143303804Y-83215967D01*
X143240931Y-83465669D01*
X143227980Y-83722839D01*
X143078600Y-83722839D01*
X143078600Y-83553767D01*
X143037150Y-83345384D01*
X142955843Y-83149091D01*
X142837803Y-82972433D01*
X142687567Y-82822197D01*
X142557156Y-82735058D01*
X143776702Y-82735058D01*
X144540000Y-83498355D01*
X145303298Y-82735058D01*
X145216671Y-82534183D01*
X144984033Y-82423804D01*
X144734331Y-82360931D01*
X144477161Y-82347980D01*
X144222406Y-82385450D01*
X143979855Y-82471899D01*
X143863329Y-82534183D01*
X143776702Y-82735058D01*
X142557156Y-82735058D01*
X142510909Y-82704157D01*
X142314616Y-82622850D01*
X142106233Y-82581400D01*
X141893767Y-82581400D01*
X141685384Y-82622850D01*
X141489091Y-82704157D01*
X141312433Y-82822197D01*
X141162197Y-82972433D01*
X141044157Y-83149091D01*
X140962850Y-83345384D01*
X140921400Y-83553767D01*
X129853600Y-83553767D01*
X129853600Y-81400000D01*
X130570294Y-81400000D01*
X130570294Y-83100000D01*
X130574708Y-83144813D01*
X130587779Y-83187905D01*
X130609006Y-83227618D01*
X130637573Y-83262427D01*
X130672382Y-83290994D01*
X130712095Y-83312221D01*
X130755187Y-83325292D01*
X130800000Y-83329706D01*
X132500000Y-83329706D01*
X132544813Y-83325292D01*
X132587905Y-83312221D01*
X132627618Y-83290994D01*
X132662427Y-83262427D01*
X132690994Y-83227618D01*
X132712221Y-83187905D01*
X132725292Y-83144813D01*
X132729706Y-83100000D01*
X132729706Y-81400000D01*
X132725292Y-81355187D01*
X132712221Y-81312095D01*
X132690994Y-81272382D01*
X132662427Y-81237573D01*
X132627618Y-81209006D01*
X132587905Y-81187779D01*
X132544813Y-81174708D01*
X132500000Y-81170294D01*
X130800000Y-81170294D01*
X130755187Y-81174708D01*
X130712095Y-81187779D01*
X130672382Y-81209006D01*
X130637573Y-81237573D01*
X130609006Y-81272382D01*
X130587779Y-81312095D01*
X130574708Y-81355187D01*
X130570294Y-81400000D01*
X129853600Y-81400000D01*
X129853600Y-80453600D01*
X165746401Y-80453600D01*
X165746400Y-111746400D01*
G37*
G04 #@! TD.AperFunction*
M02*
